<mxfile host="app.diagrams.net" modified="2024-05-23T00:04:10.243Z" agent="Mozilla/5.0 (Windows NT 10.0; Win64; x64) AppleWebKit/537.36 (KHTML, like Gecko) Chrome/125.0.0.0 Safari/537.36" etag="PWtxIgkQt8SffU5cgh9N" version="24.4.4" type="device">
  <diagram name="Сторінка-1" id="_hLw9w2NuvI-nF6aRHiv">
    <mxGraphModel dx="1600" dy="789" grid="0" gridSize="10" guides="1" tooltips="1" connect="1" arrows="1" fold="1" page="0" pageScale="1" pageWidth="827" pageHeight="1169" math="0" shadow="0">
      <root>
        <mxCell id="0" />
        <mxCell id="1" parent="0" />
        <mxCell id="4Sh_YFpvLchTDmgtKMAS-2" value="User" style="shape=table;startSize=30;container=1;collapsible=0;childLayout=tableLayout;fixedRows=1;rowLines=0;fontStyle=0;strokeColor=default;fontSize=16;" parent="1" vertex="1">
          <mxGeometry x="1046" y="105" width="281.4210526315792" height="300" as="geometry" />
        </mxCell>
        <mxCell id="4Sh_YFpvLchTDmgtKMAS-3" value="" style="shape=tableRow;horizontal=0;startSize=0;swimlaneHead=0;swimlaneBody=0;top=0;left=0;bottom=0;right=0;collapsible=0;dropTarget=0;fillColor=none;points=[[0,0.5],[1,0.5]];portConstraint=eastwest;strokeColor=inherit;fontSize=16;" parent="4Sh_YFpvLchTDmgtKMAS-2" vertex="1">
          <mxGeometry y="30" width="281.4210526315792" height="30" as="geometry" />
        </mxCell>
        <mxCell id="4Sh_YFpvLchTDmgtKMAS-4" value="_id" style="shape=partialRectangle;html=1;whiteSpace=wrap;connectable=0;fillColor=none;top=0;left=0;bottom=0;right=0;overflow=hidden;pointerEvents=1;strokeColor=inherit;fontSize=16;" parent="4Sh_YFpvLchTDmgtKMAS-3" vertex="1">
          <mxGeometry width="120" height="30" as="geometry">
            <mxRectangle width="120" height="30" as="alternateBounds" />
          </mxGeometry>
        </mxCell>
        <mxCell id="4Sh_YFpvLchTDmgtKMAS-5" value="String" style="shape=partialRectangle;html=1;whiteSpace=wrap;connectable=0;fillColor=none;top=0;left=0;bottom=0;right=0;align=left;spacingLeft=6;overflow=hidden;strokeColor=inherit;fontSize=16;" parent="4Sh_YFpvLchTDmgtKMAS-3" vertex="1">
          <mxGeometry x="120" width="161" height="30" as="geometry">
            <mxRectangle width="161" height="30" as="alternateBounds" />
          </mxGeometry>
        </mxCell>
        <mxCell id="4Sh_YFpvLchTDmgtKMAS-6" value="" style="shape=tableRow;horizontal=0;startSize=0;swimlaneHead=0;swimlaneBody=0;top=0;left=0;bottom=0;right=0;collapsible=0;dropTarget=0;fillColor=none;points=[[0,0.5],[1,0.5]];portConstraint=eastwest;strokeColor=inherit;fontSize=16;" parent="4Sh_YFpvLchTDmgtKMAS-2" vertex="1">
          <mxGeometry y="60" width="281.4210526315792" height="30" as="geometry" />
        </mxCell>
        <mxCell id="4Sh_YFpvLchTDmgtKMAS-7" value="username" style="shape=partialRectangle;html=1;whiteSpace=wrap;connectable=0;fillColor=none;top=0;left=0;bottom=0;right=0;overflow=hidden;strokeColor=inherit;fontSize=16;" parent="4Sh_YFpvLchTDmgtKMAS-6" vertex="1">
          <mxGeometry width="120" height="30" as="geometry">
            <mxRectangle width="120" height="30" as="alternateBounds" />
          </mxGeometry>
        </mxCell>
        <mxCell id="4Sh_YFpvLchTDmgtKMAS-8" value="&lt;span style=&quot;color: rgb(0, 0, 0); font-family: Helvetica; font-size: 16px; font-style: normal; font-variant-ligatures: normal; font-variant-caps: normal; font-weight: 400; letter-spacing: normal; orphans: 2; text-align: left; text-indent: 0px; text-transform: none; widows: 2; word-spacing: 0px; -webkit-text-stroke-width: 0px; white-space: normal; background-color: rgb(255, 255, 255); text-decoration-thickness: initial; text-decoration-style: initial; text-decoration-color: initial; display: inline !important; float: none;&quot;&gt;String&lt;/span&gt;" style="shape=partialRectangle;html=1;whiteSpace=wrap;connectable=0;fillColor=none;top=0;left=0;bottom=0;right=0;align=left;spacingLeft=6;overflow=hidden;strokeColor=inherit;fontSize=16;" parent="4Sh_YFpvLchTDmgtKMAS-6" vertex="1">
          <mxGeometry x="120" width="161" height="30" as="geometry">
            <mxRectangle width="161" height="30" as="alternateBounds" />
          </mxGeometry>
        </mxCell>
        <mxCell id="4Sh_YFpvLchTDmgtKMAS-9" value="" style="shape=tableRow;horizontal=0;startSize=0;swimlaneHead=0;swimlaneBody=0;top=0;left=0;bottom=0;right=0;collapsible=0;dropTarget=0;fillColor=none;points=[[0,0.5],[1,0.5]];portConstraint=eastwest;strokeColor=inherit;fontSize=16;" parent="4Sh_YFpvLchTDmgtKMAS-2" vertex="1">
          <mxGeometry y="90" width="281.4210526315792" height="30" as="geometry" />
        </mxCell>
        <mxCell id="4Sh_YFpvLchTDmgtKMAS-10" value="email" style="shape=partialRectangle;html=1;whiteSpace=wrap;connectable=0;fillColor=none;top=0;left=0;bottom=0;right=0;overflow=hidden;strokeColor=inherit;fontSize=16;" parent="4Sh_YFpvLchTDmgtKMAS-9" vertex="1">
          <mxGeometry width="120" height="30" as="geometry">
            <mxRectangle width="120" height="30" as="alternateBounds" />
          </mxGeometry>
        </mxCell>
        <mxCell id="4Sh_YFpvLchTDmgtKMAS-11" value="String" style="shape=partialRectangle;html=1;whiteSpace=wrap;connectable=0;fillColor=none;top=0;left=0;bottom=0;right=0;align=left;spacingLeft=6;overflow=hidden;strokeColor=inherit;fontSize=16;" parent="4Sh_YFpvLchTDmgtKMAS-9" vertex="1">
          <mxGeometry x="120" width="161" height="30" as="geometry">
            <mxRectangle width="161" height="30" as="alternateBounds" />
          </mxGeometry>
        </mxCell>
        <mxCell id="4Sh_YFpvLchTDmgtKMAS-13" style="shape=tableRow;horizontal=0;startSize=0;swimlaneHead=0;swimlaneBody=0;top=0;left=0;bottom=0;right=0;collapsible=0;dropTarget=0;fillColor=none;points=[[0,0.5],[1,0.5]];portConstraint=eastwest;strokeColor=inherit;fontSize=16;" parent="4Sh_YFpvLchTDmgtKMAS-2" vertex="1">
          <mxGeometry y="120" width="281.4210526315792" height="30" as="geometry" />
        </mxCell>
        <mxCell id="4Sh_YFpvLchTDmgtKMAS-14" value="password" style="shape=partialRectangle;html=1;whiteSpace=wrap;connectable=0;fillColor=none;top=0;left=0;bottom=0;right=0;overflow=hidden;strokeColor=inherit;fontSize=16;" parent="4Sh_YFpvLchTDmgtKMAS-13" vertex="1">
          <mxGeometry width="120" height="30" as="geometry">
            <mxRectangle width="120" height="30" as="alternateBounds" />
          </mxGeometry>
        </mxCell>
        <mxCell id="4Sh_YFpvLchTDmgtKMAS-15" value="String" style="shape=partialRectangle;html=1;whiteSpace=wrap;connectable=0;fillColor=none;top=0;left=0;bottom=0;right=0;align=left;spacingLeft=6;overflow=hidden;strokeColor=inherit;fontSize=16;" parent="4Sh_YFpvLchTDmgtKMAS-13" vertex="1">
          <mxGeometry x="120" width="161" height="30" as="geometry">
            <mxRectangle width="161" height="30" as="alternateBounds" />
          </mxGeometry>
        </mxCell>
        <mxCell id="4Sh_YFpvLchTDmgtKMAS-16" style="shape=tableRow;horizontal=0;startSize=0;swimlaneHead=0;swimlaneBody=0;top=0;left=0;bottom=0;right=0;collapsible=0;dropTarget=0;fillColor=none;points=[[0,0.5],[1,0.5]];portConstraint=eastwest;strokeColor=inherit;fontSize=16;" parent="4Sh_YFpvLchTDmgtKMAS-2" vertex="1">
          <mxGeometry y="150" width="281.4210526315792" height="30" as="geometry" />
        </mxCell>
        <mxCell id="4Sh_YFpvLchTDmgtKMAS-17" value="profileImg" style="shape=partialRectangle;html=1;whiteSpace=wrap;connectable=0;fillColor=none;top=0;left=0;bottom=0;right=0;overflow=hidden;strokeColor=inherit;fontSize=16;" parent="4Sh_YFpvLchTDmgtKMAS-16" vertex="1">
          <mxGeometry width="120" height="30" as="geometry">
            <mxRectangle width="120" height="30" as="alternateBounds" />
          </mxGeometry>
        </mxCell>
        <mxCell id="4Sh_YFpvLchTDmgtKMAS-18" value="String" style="shape=partialRectangle;html=1;whiteSpace=wrap;connectable=0;fillColor=none;top=0;left=0;bottom=0;right=0;align=left;spacingLeft=6;overflow=hidden;strokeColor=inherit;fontSize=16;" parent="4Sh_YFpvLchTDmgtKMAS-16" vertex="1">
          <mxGeometry x="120" width="161" height="30" as="geometry">
            <mxRectangle width="161" height="30" as="alternateBounds" />
          </mxGeometry>
        </mxCell>
        <mxCell id="4Sh_YFpvLchTDmgtKMAS-19" style="shape=tableRow;horizontal=0;startSize=0;swimlaneHead=0;swimlaneBody=0;top=0;left=0;bottom=0;right=0;collapsible=0;dropTarget=0;fillColor=none;points=[[0,0.5],[1,0.5]];portConstraint=eastwest;strokeColor=inherit;fontSize=16;" parent="4Sh_YFpvLchTDmgtKMAS-2" vertex="1">
          <mxGeometry y="180" width="281.4210526315792" height="30" as="geometry" />
        </mxCell>
        <mxCell id="4Sh_YFpvLchTDmgtKMAS-20" value="followings" style="shape=partialRectangle;html=1;whiteSpace=wrap;connectable=0;fillColor=none;top=0;left=0;bottom=0;right=0;overflow=hidden;strokeColor=inherit;fontSize=16;" parent="4Sh_YFpvLchTDmgtKMAS-19" vertex="1">
          <mxGeometry width="120" height="30" as="geometry">
            <mxRectangle width="120" height="30" as="alternateBounds" />
          </mxGeometry>
        </mxCell>
        <mxCell id="4Sh_YFpvLchTDmgtKMAS-21" value="Array&amp;lt;String&amp;gt;" style="shape=partialRectangle;html=1;whiteSpace=wrap;connectable=0;fillColor=none;top=0;left=0;bottom=0;right=0;align=left;spacingLeft=6;overflow=hidden;strokeColor=inherit;fontSize=16;" parent="4Sh_YFpvLchTDmgtKMAS-19" vertex="1">
          <mxGeometry x="120" width="161" height="30" as="geometry">
            <mxRectangle width="161" height="30" as="alternateBounds" />
          </mxGeometry>
        </mxCell>
        <mxCell id="4Sh_YFpvLchTDmgtKMAS-22" style="shape=tableRow;horizontal=0;startSize=0;swimlaneHead=0;swimlaneBody=0;top=0;left=0;bottom=0;right=0;collapsible=0;dropTarget=0;fillColor=none;points=[[0,0.5],[1,0.5]];portConstraint=eastwest;strokeColor=inherit;fontSize=16;" parent="4Sh_YFpvLchTDmgtKMAS-2" vertex="1">
          <mxGeometry y="210" width="281.4210526315792" height="30" as="geometry" />
        </mxCell>
        <mxCell id="4Sh_YFpvLchTDmgtKMAS-23" value="followers" style="shape=partialRectangle;html=1;whiteSpace=wrap;connectable=0;fillColor=none;top=0;left=0;bottom=0;right=0;overflow=hidden;strokeColor=inherit;fontSize=16;" parent="4Sh_YFpvLchTDmgtKMAS-22" vertex="1">
          <mxGeometry width="120" height="30" as="geometry">
            <mxRectangle width="120" height="30" as="alternateBounds" />
          </mxGeometry>
        </mxCell>
        <mxCell id="4Sh_YFpvLchTDmgtKMAS-24" value="Array&amp;lt;String&amp;gt;" style="shape=partialRectangle;html=1;whiteSpace=wrap;connectable=0;fillColor=none;top=0;left=0;bottom=0;right=0;align=left;spacingLeft=6;overflow=hidden;strokeColor=inherit;fontSize=16;" parent="4Sh_YFpvLchTDmgtKMAS-22" vertex="1">
          <mxGeometry x="120" width="161" height="30" as="geometry">
            <mxRectangle width="161" height="30" as="alternateBounds" />
          </mxGeometry>
        </mxCell>
        <mxCell id="4Sh_YFpvLchTDmgtKMAS-28" style="shape=tableRow;horizontal=0;startSize=0;swimlaneHead=0;swimlaneBody=0;top=0;left=0;bottom=0;right=0;collapsible=0;dropTarget=0;fillColor=none;points=[[0,0.5],[1,0.5]];portConstraint=eastwest;strokeColor=inherit;fontSize=16;" parent="4Sh_YFpvLchTDmgtKMAS-2" vertex="1">
          <mxGeometry y="240" width="281.4210526315792" height="30" as="geometry" />
        </mxCell>
        <mxCell id="4Sh_YFpvLchTDmgtKMAS-29" value="bio" style="shape=partialRectangle;html=1;whiteSpace=wrap;connectable=0;fillColor=none;top=0;left=0;bottom=0;right=0;overflow=hidden;strokeColor=inherit;fontSize=16;" parent="4Sh_YFpvLchTDmgtKMAS-28" vertex="1">
          <mxGeometry width="120" height="30" as="geometry">
            <mxRectangle width="120" height="30" as="alternateBounds" />
          </mxGeometry>
        </mxCell>
        <mxCell id="4Sh_YFpvLchTDmgtKMAS-30" value="String" style="shape=partialRectangle;html=1;whiteSpace=wrap;connectable=0;fillColor=none;top=0;left=0;bottom=0;right=0;align=left;spacingLeft=6;overflow=hidden;strokeColor=inherit;fontSize=16;" parent="4Sh_YFpvLchTDmgtKMAS-28" vertex="1">
          <mxGeometry x="120" width="161" height="30" as="geometry">
            <mxRectangle width="161" height="30" as="alternateBounds" />
          </mxGeometry>
        </mxCell>
        <mxCell id="V8YcRJC6hhfeNuU8NE-4-2" style="shape=tableRow;horizontal=0;startSize=0;swimlaneHead=0;swimlaneBody=0;top=0;left=0;bottom=0;right=0;collapsible=0;dropTarget=0;fillColor=none;points=[[0,0.5],[1,0.5]];portConstraint=eastwest;strokeColor=inherit;fontSize=16;" parent="4Sh_YFpvLchTDmgtKMAS-2" vertex="1">
          <mxGeometry y="270" width="281.4210526315792" height="30" as="geometry" />
        </mxCell>
        <mxCell id="V8YcRJC6hhfeNuU8NE-4-3" value="likedPosts" style="shape=partialRectangle;html=1;whiteSpace=wrap;connectable=0;fillColor=none;top=0;left=0;bottom=0;right=0;overflow=hidden;strokeColor=inherit;fontSize=16;" parent="V8YcRJC6hhfeNuU8NE-4-2" vertex="1">
          <mxGeometry width="120" height="30" as="geometry">
            <mxRectangle width="120" height="30" as="alternateBounds" />
          </mxGeometry>
        </mxCell>
        <mxCell id="V8YcRJC6hhfeNuU8NE-4-4" value="ObjectId&amp;lt;Post Ref&amp;gt;" style="shape=partialRectangle;html=1;whiteSpace=wrap;connectable=0;fillColor=none;top=0;left=0;bottom=0;right=0;align=left;spacingLeft=6;overflow=hidden;strokeColor=inherit;fontSize=16;" parent="V8YcRJC6hhfeNuU8NE-4-2" vertex="1">
          <mxGeometry x="120" width="161" height="30" as="geometry">
            <mxRectangle width="161" height="30" as="alternateBounds" />
          </mxGeometry>
        </mxCell>
        <mxCell id="4Sh_YFpvLchTDmgtKMAS-31" value="Post" style="shape=table;startSize=30;container=1;collapsible=0;childLayout=tableLayout;fixedRows=1;rowLines=0;fontStyle=0;strokeColor=default;fontSize=16;" parent="1" vertex="1">
          <mxGeometry x="473" y="15" width="361" height="210" as="geometry" />
        </mxCell>
        <mxCell id="4Sh_YFpvLchTDmgtKMAS-32" value="" style="shape=tableRow;horizontal=0;startSize=0;swimlaneHead=0;swimlaneBody=0;top=0;left=0;bottom=0;right=0;collapsible=0;dropTarget=0;fillColor=none;points=[[0,0.5],[1,0.5]];portConstraint=eastwest;strokeColor=inherit;fontSize=16;" parent="4Sh_YFpvLchTDmgtKMAS-31" vertex="1">
          <mxGeometry y="30" width="361" height="30" as="geometry" />
        </mxCell>
        <mxCell id="4Sh_YFpvLchTDmgtKMAS-33" value="_id" style="shape=partialRectangle;html=1;whiteSpace=wrap;connectable=0;fillColor=none;top=0;left=0;bottom=0;right=0;overflow=hidden;pointerEvents=1;strokeColor=inherit;fontSize=16;" parent="4Sh_YFpvLchTDmgtKMAS-32" vertex="1">
          <mxGeometry width="175" height="30" as="geometry">
            <mxRectangle width="175" height="30" as="alternateBounds" />
          </mxGeometry>
        </mxCell>
        <mxCell id="4Sh_YFpvLchTDmgtKMAS-34" value="String" style="shape=partialRectangle;html=1;whiteSpace=wrap;connectable=0;fillColor=none;top=0;left=0;bottom=0;right=0;align=left;spacingLeft=6;overflow=hidden;strokeColor=inherit;fontSize=16;" parent="4Sh_YFpvLchTDmgtKMAS-32" vertex="1">
          <mxGeometry x="175" width="186" height="30" as="geometry">
            <mxRectangle width="186" height="30" as="alternateBounds" />
          </mxGeometry>
        </mxCell>
        <mxCell id="4Sh_YFpvLchTDmgtKMAS-35" value="" style="shape=tableRow;horizontal=0;startSize=0;swimlaneHead=0;swimlaneBody=0;top=0;left=0;bottom=0;right=0;collapsible=0;dropTarget=0;fillColor=none;points=[[0,0.5],[1,0.5]];portConstraint=eastwest;strokeColor=inherit;fontSize=16;" parent="4Sh_YFpvLchTDmgtKMAS-31" vertex="1">
          <mxGeometry y="60" width="361" height="30" as="geometry" />
        </mxCell>
        <mxCell id="4Sh_YFpvLchTDmgtKMAS-36" value="user" style="shape=partialRectangle;html=1;whiteSpace=wrap;connectable=0;fillColor=none;top=0;left=0;bottom=0;right=0;overflow=hidden;strokeColor=inherit;fontSize=16;" parent="4Sh_YFpvLchTDmgtKMAS-35" vertex="1">
          <mxGeometry width="175" height="30" as="geometry">
            <mxRectangle width="175" height="30" as="alternateBounds" />
          </mxGeometry>
        </mxCell>
        <mxCell id="4Sh_YFpvLchTDmgtKMAS-37" value="ObjectId&amp;lt;User Ref&amp;gt;" style="shape=partialRectangle;html=1;whiteSpace=wrap;connectable=0;fillColor=none;top=0;left=0;bottom=0;right=0;align=left;spacingLeft=6;overflow=hidden;strokeColor=inherit;fontSize=16;" parent="4Sh_YFpvLchTDmgtKMAS-35" vertex="1">
          <mxGeometry x="175" width="186" height="30" as="geometry">
            <mxRectangle width="186" height="30" as="alternateBounds" />
          </mxGeometry>
        </mxCell>
        <mxCell id="4Sh_YFpvLchTDmgtKMAS-38" value="" style="shape=tableRow;horizontal=0;startSize=0;swimlaneHead=0;swimlaneBody=0;top=0;left=0;bottom=0;right=0;collapsible=0;dropTarget=0;fillColor=none;points=[[0,0.5],[1,0.5]];portConstraint=eastwest;strokeColor=inherit;fontSize=16;" parent="4Sh_YFpvLchTDmgtKMAS-31" vertex="1">
          <mxGeometry y="90" width="361" height="30" as="geometry" />
        </mxCell>
        <mxCell id="4Sh_YFpvLchTDmgtKMAS-39" value="desc" style="shape=partialRectangle;html=1;whiteSpace=wrap;connectable=0;fillColor=none;top=0;left=0;bottom=0;right=0;overflow=hidden;strokeColor=inherit;fontSize=16;" parent="4Sh_YFpvLchTDmgtKMAS-38" vertex="1">
          <mxGeometry width="175" height="30" as="geometry">
            <mxRectangle width="175" height="30" as="alternateBounds" />
          </mxGeometry>
        </mxCell>
        <mxCell id="4Sh_YFpvLchTDmgtKMAS-40" value="String" style="shape=partialRectangle;html=1;whiteSpace=wrap;connectable=0;fillColor=none;top=0;left=0;bottom=0;right=0;align=left;spacingLeft=6;overflow=hidden;strokeColor=inherit;fontSize=16;" parent="4Sh_YFpvLchTDmgtKMAS-38" vertex="1">
          <mxGeometry x="175" width="186" height="30" as="geometry">
            <mxRectangle width="186" height="30" as="alternateBounds" />
          </mxGeometry>
        </mxCell>
        <mxCell id="4Sh_YFpvLchTDmgtKMAS-63" style="shape=tableRow;horizontal=0;startSize=0;swimlaneHead=0;swimlaneBody=0;top=0;left=0;bottom=0;right=0;collapsible=0;dropTarget=0;fillColor=none;points=[[0,0.5],[1,0.5]];portConstraint=eastwest;strokeColor=inherit;fontSize=16;" parent="4Sh_YFpvLchTDmgtKMAS-31" vertex="1">
          <mxGeometry y="120" width="361" height="30" as="geometry" />
        </mxCell>
        <mxCell id="4Sh_YFpvLchTDmgtKMAS-64" value="firstImg" style="shape=partialRectangle;html=1;whiteSpace=wrap;connectable=0;fillColor=none;top=0;left=0;bottom=0;right=0;overflow=hidden;strokeColor=inherit;fontSize=16;" parent="4Sh_YFpvLchTDmgtKMAS-63" vertex="1">
          <mxGeometry width="175" height="30" as="geometry">
            <mxRectangle width="175" height="30" as="alternateBounds" />
          </mxGeometry>
        </mxCell>
        <mxCell id="4Sh_YFpvLchTDmgtKMAS-65" value="String" style="shape=partialRectangle;html=1;whiteSpace=wrap;connectable=0;fillColor=none;top=0;left=0;bottom=0;right=0;align=left;spacingLeft=6;overflow=hidden;strokeColor=inherit;fontSize=16;" parent="4Sh_YFpvLchTDmgtKMAS-63" vertex="1">
          <mxGeometry x="175" width="186" height="30" as="geometry">
            <mxRectangle width="186" height="30" as="alternateBounds" />
          </mxGeometry>
        </mxCell>
        <mxCell id="4Sh_YFpvLchTDmgtKMAS-41" style="shape=tableRow;horizontal=0;startSize=0;swimlaneHead=0;swimlaneBody=0;top=0;left=0;bottom=0;right=0;collapsible=0;dropTarget=0;fillColor=none;points=[[0,0.5],[1,0.5]];portConstraint=eastwest;strokeColor=inherit;fontSize=16;" parent="4Sh_YFpvLchTDmgtKMAS-31" vertex="1">
          <mxGeometry y="150" width="361" height="30" as="geometry" />
        </mxCell>
        <mxCell id="4Sh_YFpvLchTDmgtKMAS-42" value="secondImg" style="shape=partialRectangle;html=1;whiteSpace=wrap;connectable=0;fillColor=none;top=0;left=0;bottom=0;right=0;overflow=hidden;strokeColor=inherit;fontSize=16;" parent="4Sh_YFpvLchTDmgtKMAS-41" vertex="1">
          <mxGeometry width="175" height="30" as="geometry">
            <mxRectangle width="175" height="30" as="alternateBounds" />
          </mxGeometry>
        </mxCell>
        <mxCell id="4Sh_YFpvLchTDmgtKMAS-43" value="String" style="shape=partialRectangle;html=1;whiteSpace=wrap;connectable=0;fillColor=none;top=0;left=0;bottom=0;right=0;align=left;spacingLeft=6;overflow=hidden;strokeColor=inherit;fontSize=16;" parent="4Sh_YFpvLchTDmgtKMAS-41" vertex="1">
          <mxGeometry x="175" width="186" height="30" as="geometry">
            <mxRectangle width="186" height="30" as="alternateBounds" />
          </mxGeometry>
        </mxCell>
        <mxCell id="4Sh_YFpvLchTDmgtKMAS-44" style="shape=tableRow;horizontal=0;startSize=0;swimlaneHead=0;swimlaneBody=0;top=0;left=0;bottom=0;right=0;collapsible=0;dropTarget=0;fillColor=none;points=[[0,0.5],[1,0.5]];portConstraint=eastwest;strokeColor=inherit;fontSize=16;" parent="4Sh_YFpvLchTDmgtKMAS-31" vertex="1">
          <mxGeometry y="180" width="361" height="30" as="geometry" />
        </mxCell>
        <mxCell id="4Sh_YFpvLchTDmgtKMAS-45" value="likes" style="shape=partialRectangle;html=1;whiteSpace=wrap;connectable=0;fillColor=none;top=0;left=0;bottom=0;right=0;overflow=hidden;strokeColor=inherit;fontSize=16;" parent="4Sh_YFpvLchTDmgtKMAS-44" vertex="1">
          <mxGeometry width="175" height="30" as="geometry">
            <mxRectangle width="175" height="30" as="alternateBounds" />
          </mxGeometry>
        </mxCell>
        <mxCell id="4Sh_YFpvLchTDmgtKMAS-46" value="Map of Number" style="shape=partialRectangle;html=1;whiteSpace=wrap;connectable=0;fillColor=none;top=0;left=0;bottom=0;right=0;align=left;spacingLeft=6;overflow=hidden;strokeColor=inherit;fontSize=16;" parent="4Sh_YFpvLchTDmgtKMAS-44" vertex="1">
          <mxGeometry x="175" width="186" height="30" as="geometry">
            <mxRectangle width="186" height="30" as="alternateBounds" />
          </mxGeometry>
        </mxCell>
        <mxCell id="4Sh_YFpvLchTDmgtKMAS-67" value="Comment" style="shape=table;startSize=30;container=1;collapsible=0;childLayout=tableLayout;fixedRows=1;rowLines=0;fontStyle=0;strokeColor=default;fontSize=16;" parent="1" vertex="1">
          <mxGeometry x="519.72" y="329" width="314.2777777777776" height="180" as="geometry" />
        </mxCell>
        <mxCell id="4Sh_YFpvLchTDmgtKMAS-68" value="" style="shape=tableRow;horizontal=0;startSize=0;swimlaneHead=0;swimlaneBody=0;top=0;left=0;bottom=0;right=0;collapsible=0;dropTarget=0;fillColor=none;points=[[0,0.5],[1,0.5]];portConstraint=eastwest;strokeColor=inherit;fontSize=16;" parent="4Sh_YFpvLchTDmgtKMAS-67" vertex="1">
          <mxGeometry y="30" width="314.2777777777776" height="30" as="geometry" />
        </mxCell>
        <mxCell id="4Sh_YFpvLchTDmgtKMAS-69" value="_id" style="shape=partialRectangle;html=1;whiteSpace=wrap;connectable=0;fillColor=none;top=0;left=0;bottom=0;right=0;overflow=hidden;pointerEvents=1;strokeColor=inherit;fontSize=16;" parent="4Sh_YFpvLchTDmgtKMAS-68" vertex="1">
          <mxGeometry width="143" height="30" as="geometry">
            <mxRectangle width="143" height="30" as="alternateBounds" />
          </mxGeometry>
        </mxCell>
        <mxCell id="4Sh_YFpvLchTDmgtKMAS-70" value="String" style="shape=partialRectangle;html=1;whiteSpace=wrap;connectable=0;fillColor=none;top=0;left=0;bottom=0;right=0;align=left;spacingLeft=6;overflow=hidden;strokeColor=inherit;fontSize=16;" parent="4Sh_YFpvLchTDmgtKMAS-68" vertex="1">
          <mxGeometry x="143" width="171" height="30" as="geometry">
            <mxRectangle width="171" height="30" as="alternateBounds" />
          </mxGeometry>
        </mxCell>
        <mxCell id="4Sh_YFpvLchTDmgtKMAS-71" value="" style="shape=tableRow;horizontal=0;startSize=0;swimlaneHead=0;swimlaneBody=0;top=0;left=0;bottom=0;right=0;collapsible=0;dropTarget=0;fillColor=none;points=[[0,0.5],[1,0.5]];portConstraint=eastwest;strokeColor=inherit;fontSize=16;" parent="4Sh_YFpvLchTDmgtKMAS-67" vertex="1">
          <mxGeometry y="60" width="314.2777777777776" height="30" as="geometry" />
        </mxCell>
        <mxCell id="4Sh_YFpvLchTDmgtKMAS-72" value="post" style="shape=partialRectangle;html=1;whiteSpace=wrap;connectable=0;fillColor=none;top=0;left=0;bottom=0;right=0;overflow=hidden;strokeColor=inherit;fontSize=16;" parent="4Sh_YFpvLchTDmgtKMAS-71" vertex="1">
          <mxGeometry width="143" height="30" as="geometry">
            <mxRectangle width="143" height="30" as="alternateBounds" />
          </mxGeometry>
        </mxCell>
        <mxCell id="4Sh_YFpvLchTDmgtKMAS-73" value="ObjectId&amp;lt;Post Ref&amp;gt;" style="shape=partialRectangle;html=1;whiteSpace=wrap;connectable=0;fillColor=none;top=0;left=0;bottom=0;right=0;align=left;spacingLeft=6;overflow=hidden;strokeColor=inherit;fontSize=16;" parent="4Sh_YFpvLchTDmgtKMAS-71" vertex="1">
          <mxGeometry x="143" width="171" height="30" as="geometry">
            <mxRectangle width="171" height="30" as="alternateBounds" />
          </mxGeometry>
        </mxCell>
        <mxCell id="4Sh_YFpvLchTDmgtKMAS-74" value="" style="shape=tableRow;horizontal=0;startSize=0;swimlaneHead=0;swimlaneBody=0;top=0;left=0;bottom=0;right=0;collapsible=0;dropTarget=0;fillColor=none;points=[[0,0.5],[1,0.5]];portConstraint=eastwest;strokeColor=inherit;fontSize=16;" parent="4Sh_YFpvLchTDmgtKMAS-67" vertex="1">
          <mxGeometry y="90" width="314.2777777777776" height="30" as="geometry" />
        </mxCell>
        <mxCell id="4Sh_YFpvLchTDmgtKMAS-75" value="user" style="shape=partialRectangle;html=1;whiteSpace=wrap;connectable=0;fillColor=none;top=0;left=0;bottom=0;right=0;overflow=hidden;strokeColor=inherit;fontSize=16;" parent="4Sh_YFpvLchTDmgtKMAS-74" vertex="1">
          <mxGeometry width="143" height="30" as="geometry">
            <mxRectangle width="143" height="30" as="alternateBounds" />
          </mxGeometry>
        </mxCell>
        <mxCell id="4Sh_YFpvLchTDmgtKMAS-76" value="ObjectId&amp;lt;User Ref&amp;gt;" style="shape=partialRectangle;html=1;whiteSpace=wrap;connectable=0;fillColor=none;top=0;left=0;bottom=0;right=0;align=left;spacingLeft=6;overflow=hidden;strokeColor=inherit;fontSize=16;" parent="4Sh_YFpvLchTDmgtKMAS-74" vertex="1">
          <mxGeometry x="143" width="171" height="30" as="geometry">
            <mxRectangle width="171" height="30" as="alternateBounds" />
          </mxGeometry>
        </mxCell>
        <mxCell id="4Sh_YFpvLchTDmgtKMAS-86" style="shape=tableRow;horizontal=0;startSize=0;swimlaneHead=0;swimlaneBody=0;top=0;left=0;bottom=0;right=0;collapsible=0;dropTarget=0;fillColor=none;points=[[0,0.5],[1,0.5]];portConstraint=eastwest;strokeColor=inherit;fontSize=16;" parent="4Sh_YFpvLchTDmgtKMAS-67" vertex="1">
          <mxGeometry y="120" width="314.2777777777776" height="30" as="geometry" />
        </mxCell>
        <mxCell id="4Sh_YFpvLchTDmgtKMAS-87" value="commentText" style="shape=partialRectangle;html=1;whiteSpace=wrap;connectable=0;fillColor=none;top=0;left=0;bottom=0;right=0;overflow=hidden;strokeColor=inherit;fontSize=16;" parent="4Sh_YFpvLchTDmgtKMAS-86" vertex="1">
          <mxGeometry width="143" height="30" as="geometry">
            <mxRectangle width="143" height="30" as="alternateBounds" />
          </mxGeometry>
        </mxCell>
        <mxCell id="4Sh_YFpvLchTDmgtKMAS-88" value="String Ref" style="shape=partialRectangle;html=1;whiteSpace=wrap;connectable=0;fillColor=none;top=0;left=0;bottom=0;right=0;align=left;spacingLeft=6;overflow=hidden;strokeColor=inherit;fontSize=16;" parent="4Sh_YFpvLchTDmgtKMAS-86" vertex="1">
          <mxGeometry x="143" width="171" height="30" as="geometry">
            <mxRectangle width="171" height="30" as="alternateBounds" />
          </mxGeometry>
        </mxCell>
        <mxCell id="V8YcRJC6hhfeNuU8NE-4-8" style="shape=tableRow;horizontal=0;startSize=0;swimlaneHead=0;swimlaneBody=0;top=0;left=0;bottom=0;right=0;collapsible=0;dropTarget=0;fillColor=none;points=[[0,0.5],[1,0.5]];portConstraint=eastwest;strokeColor=inherit;fontSize=16;" parent="4Sh_YFpvLchTDmgtKMAS-67" vertex="1">
          <mxGeometry y="150" width="314.2777777777776" height="30" as="geometry" />
        </mxCell>
        <mxCell id="V8YcRJC6hhfeNuU8NE-4-9" value="likes" style="shape=partialRectangle;html=1;whiteSpace=wrap;connectable=0;fillColor=none;top=0;left=0;bottom=0;right=0;overflow=hidden;strokeColor=inherit;fontSize=16;" parent="V8YcRJC6hhfeNuU8NE-4-8" vertex="1">
          <mxGeometry width="143" height="30" as="geometry">
            <mxRectangle width="143" height="30" as="alternateBounds" />
          </mxGeometry>
        </mxCell>
        <mxCell id="V8YcRJC6hhfeNuU8NE-4-10" value="Array&amp;lt;String&amp;gt;" style="shape=partialRectangle;html=1;whiteSpace=wrap;connectable=0;fillColor=none;top=0;left=0;bottom=0;right=0;align=left;spacingLeft=6;overflow=hidden;strokeColor=inherit;fontSize=16;" parent="V8YcRJC6hhfeNuU8NE-4-8" vertex="1">
          <mxGeometry x="143" width="171" height="30" as="geometry">
            <mxRectangle width="171" height="30" as="alternateBounds" />
          </mxGeometry>
        </mxCell>
        <mxCell id="V8YcRJC6hhfeNuU8NE-4-12" style="edgeStyle=orthogonalEdgeStyle;rounded=0;orthogonalLoop=1;jettySize=auto;html=1;curved=1;strokeWidth=2;endArrow=ERmany;endFill=0;endSize=10;startArrow=ERone;startFill=0;targetPerimeterSpacing=0;sourcePerimeterSpacing=0;startSize=10;" parent="1" source="4Sh_YFpvLchTDmgtKMAS-35" target="4Sh_YFpvLchTDmgtKMAS-3" edge="1">
          <mxGeometry relative="1" as="geometry">
            <Array as="points">
              <mxPoint x="951" y="90" />
              <mxPoint x="951" y="150" />
            </Array>
          </mxGeometry>
        </mxCell>
        <mxCell id="V8YcRJC6hhfeNuU8NE-4-14" style="edgeStyle=orthogonalEdgeStyle;curved=1;rounded=0;orthogonalLoop=1;jettySize=auto;html=1;strokeColor=default;strokeWidth=2;align=center;verticalAlign=middle;fontFamily=Helvetica;fontSize=11;fontColor=default;labelBackgroundColor=default;startArrow=ERone;startFill=0;startSize=10;endArrow=ERmany;endFill=0;endSize=10;sourcePerimeterSpacing=0;targetPerimeterSpacing=0;" parent="1" source="4Sh_YFpvLchTDmgtKMAS-74" target="4Sh_YFpvLchTDmgtKMAS-3" edge="1">
          <mxGeometry relative="1" as="geometry">
            <Array as="points">
              <mxPoint x="969" y="434" />
              <mxPoint x="969" y="150" />
            </Array>
          </mxGeometry>
        </mxCell>
        <mxCell id="V8YcRJC6hhfeNuU8NE-4-15" style="edgeStyle=orthogonalEdgeStyle;curved=1;rounded=0;orthogonalLoop=1;jettySize=auto;html=1;strokeColor=default;strokeWidth=2;align=center;verticalAlign=middle;fontFamily=Helvetica;fontSize=11;fontColor=default;labelBackgroundColor=default;startArrow=ERone;startFill=0;startSize=10;endArrow=ERmany;endFill=0;endSize=10;sourcePerimeterSpacing=0;targetPerimeterSpacing=0;" parent="1" source="4Sh_YFpvLchTDmgtKMAS-71" target="4Sh_YFpvLchTDmgtKMAS-32" edge="1">
          <mxGeometry relative="1" as="geometry">
            <Array as="points">
              <mxPoint x="395" y="404" />
              <mxPoint x="395" y="60" />
            </Array>
          </mxGeometry>
        </mxCell>
        <mxCell id="V8YcRJC6hhfeNuU8NE-4-16" style="edgeStyle=orthogonalEdgeStyle;curved=1;rounded=0;orthogonalLoop=1;jettySize=auto;html=1;strokeColor=default;strokeWidth=2;align=center;verticalAlign=middle;fontFamily=Helvetica;fontSize=11;fontColor=default;labelBackgroundColor=default;startArrow=ERone;startFill=0;startSize=10;endArrow=ERmany;endFill=0;endSize=10;sourcePerimeterSpacing=0;targetPerimeterSpacing=0;" parent="1" source="4Sh_YFpvLchTDmgtKMAS-19" target="4Sh_YFpvLchTDmgtKMAS-68" edge="1">
          <mxGeometry relative="1" as="geometry">
            <Array as="points">
              <mxPoint x="895" y="300" />
              <mxPoint x="895" y="374" />
            </Array>
          </mxGeometry>
        </mxCell>
        <mxCell id="V8YcRJC6hhfeNuU8NE-4-17" style="edgeStyle=orthogonalEdgeStyle;curved=1;rounded=0;orthogonalLoop=1;jettySize=auto;html=1;strokeColor=default;strokeWidth=2;align=center;verticalAlign=middle;fontFamily=Helvetica;fontSize=11;fontColor=default;labelBackgroundColor=default;startArrow=ERone;startFill=0;startSize=10;endArrow=ERmany;endFill=0;endSize=10;sourcePerimeterSpacing=0;targetPerimeterSpacing=0;" parent="1" source="4Sh_YFpvLchTDmgtKMAS-22" target="4Sh_YFpvLchTDmgtKMAS-68" edge="1">
          <mxGeometry relative="1" as="geometry">
            <Array as="points">
              <mxPoint x="916" y="330" />
              <mxPoint x="916" y="374" />
            </Array>
          </mxGeometry>
        </mxCell>
        <mxCell id="V8YcRJC6hhfeNuU8NE-4-21" style="edgeStyle=orthogonalEdgeStyle;curved=1;rounded=0;orthogonalLoop=1;jettySize=auto;html=1;strokeColor=default;strokeWidth=2;align=center;verticalAlign=middle;fontFamily=Helvetica;fontSize=11;fontColor=default;labelBackgroundColor=default;startArrow=ERone;startFill=0;startSize=10;endArrow=ERmany;endFill=0;endSize=10;sourcePerimeterSpacing=0;targetPerimeterSpacing=0;" parent="1" source="V8YcRJC6hhfeNuU8NE-4-2" target="4Sh_YFpvLchTDmgtKMAS-32" edge="1">
          <mxGeometry relative="1" as="geometry">
            <Array as="points">
              <mxPoint x="916" y="390" />
              <mxPoint x="916" y="60" />
            </Array>
          </mxGeometry>
        </mxCell>
        <mxCell id="V8YcRJC6hhfeNuU8NE-4-22" style="edgeStyle=orthogonalEdgeStyle;curved=1;rounded=0;orthogonalLoop=1;jettySize=auto;html=1;strokeColor=default;strokeWidth=2;align=center;verticalAlign=middle;fontFamily=Helvetica;fontSize=11;fontColor=default;labelBackgroundColor=default;startArrow=ERone;startFill=0;startSize=10;endArrow=ERmany;endFill=0;endSize=10;sourcePerimeterSpacing=0;targetPerimeterSpacing=0;" parent="1" source="4Sh_YFpvLchTDmgtKMAS-44" target="4Sh_YFpvLchTDmgtKMAS-3" edge="1">
          <mxGeometry relative="1" as="geometry">
            <Array as="points">
              <mxPoint x="945" y="210" />
              <mxPoint x="945" y="150" />
            </Array>
          </mxGeometry>
        </mxCell>
        <mxCell id="V8YcRJC6hhfeNuU8NE-4-23" value="Actor" style="shape=umlActor;verticalLabelPosition=bottom;verticalAlign=top;html=1;outlineConnect=0;fontFamily=Helvetica;fontSize=11;fontColor=default;labelBackgroundColor=default;" parent="1" vertex="1">
          <mxGeometry x="1989" y="111" width="30" height="60" as="geometry" />
        </mxCell>
        <mxCell id="ZzRnLKhd8C6RycXv0hly-1" value="" style="shape=image;verticalLabelPosition=bottom;labelBackgroundColor=default;verticalAlign=top;aspect=fixed;imageAspect=0;image=data:image/png,iVBORw0KGgoAAAANSUhEUgAAAjAAAAF6CAIAAACIuPWvAAAgAElEQVR4AeydeVwTWbqw25n7mzs9c+83c2d+997vuz09M90z3XZPT0+303vbbbe2OyooAsqioAgq4oaKu6LiioqiuCAIyiLKroLKpiyyySb7DmFJQva9ktTy3YBaqKBJqJBK5a0/9FA5dc77Pu9JniyVyhsEbEAACAABIAAEaEDgDRrEACEAASAABIAAECBASLAIgAAQAAJAgBYEQEi0KAMEAQSAABAAAiAkWANAAAgAASBACwIgJFqUAYIAAkAACAABEBKsASAABIAAEKAFARASLcoAQQABIAAEgAAICdYAgVv4BiUEAkCAGQRASMyoo2FZYBgmEokKCgr27dvn7e29wsI3Ly+vPXv25OXlCYVCDMMMYwG9gQAQoA0BEBJtSjFWgWi12tbWVj8/v5CQkLa2Nj6fL7Twjc/nd3R0nDt3btmyZe3t7eCksVpKMA8QoJgACIlioDQfDsfx3t5ed3f3xsZG5j1wt7a2urq6tre307wKEB4QAALDEgAhDYuFsTs1Gk1gYGBRURFTM6ypqdm4caNGo2FqgpAXEGAwARASg4s7TGpSqdTNzY3Zj9c+Pj7wImmY2sMuIEB7AiAk2peI0gDr6+vPnj1L6ZC0GywhISEzM5N2YUFAQAAIvI4ACOl1hJh1e0FBQWJiIrNyejGbvLy85OTkF/fC30AACNCeAAiJ9iWiNMCCgoKkpCRKh6TdYPn5+YzPkXbQISAgQAUBEBIVFC1nDBCS5dQKIgUCVkcAhGRdJQchWVe9IVsgYFEEQEgWVa5RBwtCGjVCGAAIAAFTEQAhmYosPccFIdGzLhAVEAACBAE/YW5lqwCEZGUFh3SBgCURgFdIllSt0ccKQho9QxgBCAABExEAIZkILE2HHUlIGqWUyxPpdaFsHJMrFAqVWv8MUVQjk4hQXP8jdD1RjUogkRt2zEBvOO3bCGhwCBCgAwEQEh2qMHYxjCAkPC/68E+23iw5OmIoOC4X8dn9IkIjj7x4KrmoXi97DQwnEXRsWrNcoBpx7KE3IDJhT68Ax3FB7c35x64PvUnPNghJT1DQDQjQjQAIiW4VMW08wwoJU/GWTPrSxW5qaEbtSNNjGnXS5uWXsloIRLxv54bQ28X6C0kp5+zbvU2u3/VOW7MvLV+fimK4pCVnTVT2SPG8Yj8I6RVw4CYgQGcCICQ6V4f62IYVUvejlL/PWtF6/8xndltlWt2knK6mtOwCngwhCKLtYUZ8xmNJV7nT3993WB+YV1axb+e6fRej465eOnE2rKqVQxAEhmp7Wx9HXTxz+mx4UXWzUq0llPyT0QkP78SfPhvZ0s1KiL7Y28u+eeXSkaNHjhw9cjDwwJnYWwRByITsjMToE8eDLkbGN3X1K4SdQVsWfzjBJfrmfQmr/HjSfYLAZSJu7u0bwSeOX0vN7hfLcYLoyEm9mVWVFh95+tT5gspGRPucHEFI1K8bGBEIjAkBENKYYKbNJMMJSROxafb6sw8wDd/m0z9n1XEJgmh5dM/WZ287X0EQRF6o33zfqwpO89aZP3jvv9TY3rlv45IvZzlcikuMOr39/S+XSDCc31E665tvjl+IuX7ljM1c27TiOo248//9+a+bDp69mZDRyaqbO+XLboH80YOcjDsZN5Ovzv3uY7+QVBxDj62Z7b035PbttIANyxw2Hu3i8sP3eU2eszO/ooFdFP6nlSeVkv7Lh9YuXumfmJa6Z5WD06ZzCkSTs8Pjk69tTl9NvHr2iO3cxSWNfUMBg5CG0oA2ELAgAiAkslheXl7uTN/mzp37wnXelNyGz97/qoglQFSq0NVzbHfGaHCipezuvNV7BoX04OxGuzVXUDUSs2TBqVsNurfsNvkciMpS4wSB8eb+n09qxVjaXrdlQXd0Zy3gWFbkXsc94bzelv/+06RWpZYgcB67ds7kz9kDJyhoEVnCKb+5vselai2Bow3lhSKZSiYRVWbfsJ25vrFbUpt81HHFDRTF+4ouve19orulwm6BXW2f7mBU3jPpr99Uc+U5OzwW7IwmCAIRswI3zb12v4asIkHk5uZOnjyZ2ZX08PDIz88fmjW0gQADCICQyCKuWrWKw/QtLS3tOSHhWHnysT+/+5dJk36YPHnyl5+O//N7Exu58payu3OfCun+mQ12Ps8LifwMSejwf/5RI8bOus8NjK8cRFmdGTVz4SF2Z+N//3OOQPOckLSIrDTtgs3c1d183TtvOKYtvxfvYjdv/vz5M36cOHHi6kbWC0I63l6XY++0sEuk+wAKx8Qr//xeer00Z4fHulO5BEGoJd2Ht817QUh5eXmXL19mdiVv3LgBVzQn77rQYgoBEBJZydWrV5N/MLT1wlt2WkX/tgXfb4/Mae/o7OzsbG6ss/vxiyMJpa3lWTYe/o87uAqZ5FrAElufKFSDxHosOJZUqVUIhpzUMCAkCZ4e6L3yWLJQIpNLhbcu7XEMuCzitL4gpG6hovr+9bmzZxfXtSuUKpVKrZU0fvl/38+paOZwuKV3Yn/6aW0jS1KfGjTfPVqp0gy+QuJ01No7ORQ3dCsUCm7n46l//6mGp3i1kKzhLbvbt2+DkBh6H7XqtEBIZPmtUEjc5oLpsxa0cUSD3xHCtEjh1S0zHbe0tTVscHU+fDYy+UbsMtspi/ziMFSTfWaVx+7zjxubju7fGn7v0cCJBKKlf/i2XkpI+6pd5tmej4yLj760ZIlbZlUbKun+6/cOQi1KELiA27jQ5oe6prol8yb57DoSn5iYnJKcnJIrU/Y4TPz+TFR8StL1navdpk/zaWQJ2VXJM+b5ZhU/5pRGfbj+rFohvnZyy+qtgdcTE05sX+m98xKi0ebtX731vO4NK7Ws7+Rex8SCerKKBAFCGkoD2kDAggiAkMhiWaGQOM2l8alFSmTg1DodCVwm7omJjeNKVZyO+riI8LjUrO6WsrTcBoLA5cKuq+Hh96pbSgrvP+7kDDgMuX32Kl9N4BgmYrclxESGR16rbetVazFCLbsQk6zCdNpSKQTJ12P6ersiL50/c/Zs6JPthozAOa1Vly+ci76R1tTadvd2MkcoR1WSm/FRsel5ir7asOxKgsBVCnHZ/fSw8+dv5ZRIlQhOEKzCew+qega+PCsvy09u6hGQVQQhDWUBbSBgUQRASGS5rFBIZPIMasErJAYVE1KxLgIgJLLeICSShSW3QEiWXD2I3aoJgJDI8oOQSBaW3AIhWXL1IHarJgBCIssPQiJZWHILhGTJ1YPYrZoACIksPwiJZGHJLRCSJVcPYrdqAiAksvwgJJKFJbdASJZcPYjdqgmAkMjyg5BIFpbcAiFZcvUgdqsmAEIiyw9CIllYcguEZMnVg9itmgAIiSy/lQgpMTGRzJmJrby8PMZfVgcuHcTElQs5ESAkchFYg5AqKiqioqLInJnYSk9Pz8jIYGJmZE4gJJIFtBhEAIREFtMahCQWi/38/FB05J8qJ3lYamvv3r0NDQ2WGr1+cYOQ9OMEvSyMAAiJLJg1CEmj0Xh5eTU1NZFpM6vF5XKdnZ01Gv1+L91icwchWWzpIPBXEQAhkXSsQUg4jtfV1W3evLm3t5fMnCktkUi0cePGsrIypiQ0Yh4gpBHRwA2WTACERFbPGoREEIRWq83MzFy/fv3Dhw8lEgk2cEFukoIFtjAMk0ql5eXlPj4+aWlpDMjotUUAIb0WEXSwRAIgJLJqViIk3Y9M4HhHR8f+/ftdXV09PT1XWPi2fPlyFxeXHTt2dHZ2kuVkdAuExOjyWm9yICSy9tYjpGc5q1QqgUDAs/BNIBCoVCocH/yVwWfJMbkBQmJyda04NxASWXwrFBKZPLQsigAIyaLKBcHqSwCERJICIZEsoEVvAiAketcHojOSAAiJBAdCIllAi94EQEj0rg9EZyQBEBIJDoREsoAWvQmAkOhdH4jOSAIgJBIcCIlkAS16EwAh0bs+EJ2RBEBIJDgQEskCWvQmAEKid30gOiMJgJBIcCAkkgW06E0AhETv+kB0RhIAIZHgQEgkC2jRmwAIid71geiMJABCIsGBkEgW0KI3ARASvesD0RlJAIREYBg2+CX/QSHhA5uROOEwIGBiAoNX6nsmJFiuJuYNw48pARASweFwuru7FQrFypUrJRIJi8WSSCRjWgSYDAjoTaCpqam/vz8lJeXGjRv9/f2dnZ2M/60NvdlAR4snAEIiWCzW5MmTT58+bWdnt3fvXhsbG6FQaPGFhQQYSuDcuXP29vb+/v5btmxxd3c/fPiwVqtlaK6QltURACERKIp6e3v/68D2m9/8JiIiwqou02l1S97CE+ZyuX/4wx/+9V//9Re/+MX48ePb29stPCEIHwiQBEBIOhZNTU2//e1vx40b98EHHwgEAhIPtIAA/QgcO3Zs3Lhxb775pr+/P7w8ol99ICLjCYCQdOwwDPPx8fnFL34RHR0NL4+MX01w5JgQEIvFf/rTn95+++2enp4xmRAmAQJjRMAChITjuEKh4HK5vabcCgsL33nnncbGRtNN0tfXx+PxEAQB543R6jbHNFqtViQSsdls0y2k3t5ef3//lStXdnd3m24WNpstEolQFDUHRZjTSgnQWkg4jovF4pSUlE2bNq1bt26DKbf169d7eHiYcgbd2L6+vtu2bbt//z6CIFa64pibNoqi7e3tp06d8vX1Xb9+vUnX0po1a7y9vU06xfr169esWXPixImuri54CsXcZUuvzGgtJC6X6+3tHRYWJhAIMEZsKIp2d3fv2bNn37594CR63RVGF41Wqy0rK1u2bFlhYaFKpWLEasU0Gk1JSYmrq2t2dvbo8MDRQEAvAvQVkkqlWrFiRXl5uV55WFQnDMPi4+ODgoIGv+RoUbFDsMMQwHG8s7PT1dW1v79/mJstfJdcLndzc6usrLTwPCB8CyBAXyHdvXv33LlzFoDQqBAxDPPy8mpubjbqaDiIXgQQBFm1alVHRwe9wqIuGqFQ6OzsrFarqRsSRgICwxCgr5CWLFnC5/OHCZkpu6qrqw8dOsSUbKw6D5FItGrVKma/3vX3929sbLTqMkPypidAXyHZ29ubPn1zzoBhmLOzszkjgLkpIlBVVXX58mWKBqPpMDdv3rxz5w5Ng4OwmEKAvkJydHRkCuQR83BychrxNrjBcgjk5+cnJydbTrzGRJqXl5eSkmLMkXAMENCbAAhJb1Qm6AhCMgFUMwyZn5/P+AdrEJIZFpb1TQlCMmfNQUjmpE/d3PAKiTqWMJJVEwAhmbP8ICRz0qdubhASdSxhJKsmAEIyZ/lBSOakT93cICTqWMJIVk0AhGTO8oOQzEmfurlBSNSxhJGsmgAIyZzlByGZkz51c4OQqGMJI1k1ARCSOcsPQjInfermBiFRxxJGsmoCICRzlh+EZE761M0NQqKOJYxk1QQYKCRRX9PZw7sWOzlt3nvsUUMnosUIQhm2amtDv9LQUvPq8/YcClYhmsEDpSLekQOHK9tFho4zUn8Q0khkLGs/JUJi1T0MPHyNK1SNIndN6DaXItZoRhhxcvge0oho4AbqCDBNSJicNevz9w6E3Sh6+DDp8qnJ30+79bABIxSHpzlUsJUEgWMYjuM4NvDfM4y6v5/e8GwnQRDdhXE/2iySK5/cwwWcnjnT596t4hC6MXTbC+MMPVafNghJH0r070OJkOrzE2fY7Opky17I9+Vl9mzPwBoc2h1Z8e2/J9bJCYLAcd1CH1zWQ3sY3QYhGY0ODtSfANOE1P/owr9P9RYrlFotimlVuVFnL6cWqTFNU1m1WKnBVaKCqrqeztby8vKG1k65SkMQuEoqbKqrLntU0dnTV1f1WDXkFzJHEpJK2N/a1Nne3PTo0aP65k6Vesgx+rMnCBCSIbTo29dUQsJxpUzc1lT36FF5Y0unVIHgOIGqVazWxkdlpQ1NbZ1NzRz+0Nf9T4Sk1SCtDVWdLNbjqsrq2iahVIHjo6UHQhotQTheDwJMExIqaJjyxZd7Tly8l5tf39LOE0q0KEYQUt93vsjvkmJdub/654+eq3x27tw8a/q8G7l1apUk4bjfArcV+/bsXLx06YQPbPqH/JTrSELiPs62+dpp/kKP3bv95/40+VxqhXH3dxCSHkvUArqYSEhqpTTh+Do7R/edu7Y52s06EZ8tUyKP70ZNnTZ/x5693i62Cz+fdKucPQTQEyHJJIKZ3453c/XYsWeX/cyf9kZlyhAjnzM9GxyE9AwFNExHgGlCIgiC3Vx2aOcW50Xzp0ybtmrzgaqWXi0meSak3/xhKkuixrWK5BMBOwOvdTcVTpzixOoXEwTRU5nyjz/rK6TZk+xq2zkYjnMep374yVIpZkyNQEjGUKPfMSYSkqi7/Nt/TGnplxE41leTNX22Y3tX27KvP0mr4RIELuxrd/z+x5GENOvHCfGlnRiO12dFzVt4mCMY+kLKGIIgJGOowTEGEmCakHis5tZeMYZqZRJRW0NF4DoXt93n+QrBMyH97oc1A58Iqe+FHtu9L6Y2O2qazTGRVLdPpeiZ9clzQup7FD9xloNM8eQzJD67a/a0mZn1PO7jbFe7Q739A2/3azu//fU3PUNeV+lfAhCS/qzo3NM0QsJ5FYl/e3+DZOC5jlrQOsPWtqK25M/v/tQz8BaxSsQ/ZbdgJCHNm/FVcbeUIIjOh0kOtkfZPBASnVcQxPaEANOElB++zXlrmECq1L3brlE9SDg9b91hroxPCmmy78DPXj4RUmdt5ndTlvfwJARB8Dvyvnj3OSHJeio+/WpyQ3c/jhMYqm2rLZ48bWYjV8F9nG03ZVVLFw/HcUHT3b+NXyw26h0REBIz7ogmEpKoPf+bjx3a+HICxzhNRbNtbds6WuZ8+Hluu5AgcBGna+WPU0YU0syvSnp0T5hASMxYY1aSBdOEpOTWuc3+YaX/gatXr14OO+PqZB+dU6lGybfsfve8kCQy0YFl9hsPh91MS93h6/TBW88JCdPIL2xaONd1bWTU1csRl7wcZ24+k6bU4tzH2TM+/25VYFhqaoKf+4KDsQ/hMyQrucMMmyZVQvpsgv3p0EtXBrbom3kKpWS/h/36/eeSkhP3r3ddGRgtUagKru6zc92UkpoWfnTjdxO+BSENWxHYaaEEmCYkAsckvN6MlJjDhw+fDIuuae1RqbUEob59NKRTrMHF7Qcibg+8mEHby/Lu5dYgKkVPV3taXPiJU6HFFZlf/9FeqH2ulCqZqPzB7dPHjx4KDs2raJYpda+vuI+zHWb4ZN9KCjoZnFVcp4Sz7J5jZnV/UCIkYU9D0NFDBw4EDm6HwpK1OC4XC7JT4oOCgtOyS0QyJY5jvJ6Oopy0E0ePJWY88Jk+PaOufwhuNPXivjquWqNGwi+GcOW6789J+xqjwu8rVM8v6yHH6NmEz5D0BAXdRkOAcUIagIFhqFar1aIo/vR0V1TX1n07Q4s+eXNt8LtHiLBj3oKFmaXVHe1tN4LXzFx7/uU7Lo5hutG0WuzpaNzH2YvmbGL1iYbuNKIM8JadEdBoeAglQsLxwVU7uNZ0y3cw08HFjGGDp82gp1ZNOxL3oK29rejutSlT7bvEA+9AP4WCotrBRYphAwt+4AtJA9+We9rD2P9BSMaSg+MMIMBMIRkAgECbStKXO9pMnDx108ELfPlzd++RxhG1l/kuO9gvVIzUQc/9ICQ9QdG8GyVC0jNHCbthj6/rpO++c1u5o7Jt6MsjPQcwshsIyUhwcJghBEBIhtCiui8IiWqi5hlvLIVkngwJAoRkLvJWNS8IyZzlBiGZkz51c4OQqGMJI1k1ARCSOcsPQjInfermBiFRxxJGsmoCICRzlh+EZE761M0NQqKOJYxk1QRASOYsPwjJnPSpmxuERB1LGMmqCYCQzFl+EJI56VM3NwiJOpYwklUTACGZs/wgJHPSp25uEBJ1LGEkqyZAXyE5ODgwuzI4joOQmFHi4uLi+Ph4ZuQyUhZZWVm3bt0a6VbYDwQoIUBfIc2fP1+lenKZbUpSpdsgvb29GzZsoFtUEI8RBLhc7vbt24040IIOOXnyZEVFhQUFDKFaIgH6Cun8+fOZmZnPrv1jiXBfETOO40ePHi0oKHhFH7jJUgioVKpFixbxeDxLCdjQOBEEmTdvnlqt13VMDB0c+gOBZwToKySZTObk5NTT04M+vfrcs6AtvaHRaKqqqtzc3J5eoMzSE7L2+DEMe/DgwbFjx6RSKcOeQuE4rlQqz507l5ycbO1lhvxNT4C+QsJx/PHjx6tXr66srBQKhQqFQmX5m1wu5/F4eXl5np6efD7f9PWFGcaIgEqlunjxYkhISFdXl0QiUSqVlr5alUqlRCLp6em5fPlyQECAVvvyZYfHiC1MYz0E6CskgiBQFO3o6AgICAgMDIyOjr5u4i0sLMzEM1yPioravXv30aNHBQKB9SwyK8lUqVRmZGRs3br1zJkz8fHxJl1Lup/7unzZpFPEx8efPXvW398/LS0N3qyzkjVs9jRpLSRCd/F8XKVSdXZ2FhUV5Zl4s7e3N/EMeaWlpX19fRqN7odqYGMeAQzDxGJxbW1tfn6+SdfSsWPHDh8+bNIp8vPza2pqRCIRw96EZN6qY1JGdBfSWLJevXr1WE4HcwEBowncvn0bPtQxmh4cSFsCICSyNCAkkgW06E0AhETv+kB0RhIAIZHgQEgkC2jRmwAIid71geiMJABCIsGBkEgW0KI3ARASvesD0RlJAIREggMhkSygRW8CICR61weiM5IACIkEB0IiWUCL3gRASPSuD0RnJAEQEgkOhESygBa9CYCQ6F0fiM5IAiAkEhwIiWQBLXoTACHRuz4QnZEEQEgkOBASyQJa9CYAQqJ3fSA6IwmAkEhwICSSBbToTQCERO/6QHRGEgAhkeBASCQLaNGbAAiJ3vWB6IwkAEIiwYGQSBbQojcBEBK96wPRGUkAhESCAyGRLKBFbwIgJHrXB6IzkgAIiQQHQiJZQIveBEBI9K4PRGckARASCQ6ERLKAFr0JgJDoXR+IzkgCICQSHAiJZAEtehMAIdG7PhCdkQRASCQ4EBLJAlr0JgBCond9IDojCYCQSHAgJJIFtOhNAIRE7/pAdEYSACGR4EBIJAto0ZsACIne9YHojCQAQiLBgZBIFtCiNwEQEr3rA9EZSQCERIIDIZEsoEVvAiAketcHojOSAAiJBAdCIllAi94EQEj0rg9EZyQBEBIJDoREsoAWvQmAkOhdH4jOSAIgJBIcCIlkAS16EwAh0bs+EJ2RBEBIJDgQEskCWvQmAEKid30gOiMJgJBIcCAkkgW06E0AhETv+kB0RhIAIZHgQEgkC2jRmwAIid71geiMJABCIsGBkEgW0KI3ARASvesD0RlJAIREggMhkSygRW8CICR61weiM5IACIkEB0IiWUCL3gRASPSuD0RnJAEQEgkOhESygBa9CYCQ6F0fiM5IAiAkEpyNjc0+2KgmsHv37p07d1I9qrWP5+npmZ6eTq5daAEBRhAAIZFlrKmpqYWNagIBAQGnT5+melQYr1YsFpNrF1pAgBEEQEiMKCONkzhz5kxSUhKNA4TQgAAQoAsBEBJdKsHUOEBITK0s5AUEKCcAQqIcKQz4HAEQ0nM44A8gAARGJgBCGpkN3EIFARASFRRhDCBgFQRASFZRZjMmCUIyI3yYGghYFgEQkmXVy/KiBSFZXs0gYiBgJgIgJDOBt5ppQUhWU2pIFAiMlgAIabQE4fhXEwAhvZoP3AoEgMAzAiCkZyigYRICICSTYIVBgQATCYCQmFhVOuUEQqJTNSAWIEBrAiAkWpeHAcGBkBhQREgBCIwNARDS2HC23llASNZbe8gcCBhIAIRkIDDorjcBuVyOYdigkFAUValUKIrqfTR0BAJAwOoIgJCsruRjkzCO44cPHy4sLDx8+HBUVFR5efn58+eVSuXYzA6zAAEgYIkEQEiWWDXLiPn69ev/8z//8/HHH3/yySfjx48/e/YsvEKyjMpBlEDATARASGYCbwXTymSyDz744I033hg3btzf//53NpttBUlDikAACBhPAIRkPDs48rUErl27Nm7cuF//+tehoaEYhr22P3QAAkDAmgmAkKy5+ibPHUGQCRMmvPPOOwKBwOSTwQRAAAhYOAEQkoUX0NjwcRyXyWRtbW15eXk5pty2bdvm6+tryhly8vLyWlpaZDIZjuPG8oDjgAAQMD8BEJL5azD2ESAIkpmZaWNjs3Pnzri4uEQL365du7Znz55Zs2alpqbCG4Njv5xgRiBAFQEQElUkLWYchUIRGhp65MgRoVDIpJcUUqk0KCjo4MGDGo3GYooBgQIBIDCEAAhpCAwraGIYlpOTExQUpFarmZcuiqInTpyIi4tjkmiZVybICAiMRACENBIZZu5XqVTOzs58Pp+Z6RGEWq1etGiRRCJhaoKQFxBgMAEQEoOLO0xqfX19u3fvHuYGBu0KCQkpLS1lUEKQChCwFgIgJGup9GCexcXF8fHxzM45Ozs7LS2N2TlCdkCAkQRASIws64hJFRQUJCUljXgzI27Iz89nfI6MKBQkAQReJABCepEIs/8GITG7vpAdELBoAiAkiy6fwcGDkAxGBgcAASAwVgRASGNFmh7zgJDoUQeIAggAgWEIgJCGgcLgXSAkBhcXUgMClk4AhGTpFTQsfhCSYbygNxAAAmNIAIQ0hrBpMBUIiQZFgBCAABAYngAIaXguTN1LlZA0iFKlVj+7uDaOoUqZHKPHtbbhtG+mrl7Ii/EEQEiML/FzCVIlpMq7J3Ym5Sk1T35zTylr3bRshQh5bi5z/QFCMhd5mBcIjJIACGmUAC3scKqEdPvckrnHY0Uq7WD+Yl7ZD++83yOjBQ0QEi3KAEEAAcMJgJAMZ2bJR5haSJhW09NamxAXFR5zo7aDjeO4VqO4dS2xruZRdGTknbzy3h7WvbQbEVevd/B0+sJQLauxPOZKeGzi7fUcco8AACAASURBVI5eHkrFu34gJEteoRC7VRMAIVlX+SkU0kfTZ/usXb9xYPNZ5fLRO+/3SLG2imzXxa4nzkfFRpye8f3MojaxSsmZ+snfPTcfjr16YZHtLE+v9ZeuxgVv95y5NojAcVZF+szpTpeuxocFB3qs3NncIxj951AgJOta05AtgwiAkBhUTD1SoVBI33ptiktIThvY4qJPfP7O+yyeKPTA2t0Xb8pUGo0auROybsGmyyoFe9qE/3nUJdYohaGbVu04kShRacRt+b/9yRXHsH1Lp+29mtne0dHWXLN3qcvFlGL1k4+l9EhmhC4gpBHAwG4gQHcCICS6V4ja+CgU0pzjMUKlFh/YRP26z5A6+np3b5578nbJYMwdeaGf2K9TKdizv3ibJSUIrTx869aQqAdqgkB6Sv99sguGoYt/+uu7H3361ddfffXVlxM++UdQfB6CjjZjENJoCcLxQMBMBEBIZgJvpmkpFNLLJzWweKKQfT4BERlKtRbVarLPb5q37iIpJPRFIeEYttF58pnsOq0W1aqVrJZWNk8y+k+RQEhmWlwwLRAYLQEQ0mgJWtbxVAnpTtjy+cHx4qcvZyT88qkf/L1PhjWX3nF0cA2LSUy7ETn9mylZjQKVkm377V90J+Ch8sidO0Kj8zUEgfSW/+f0pQSOtxfGTZpiF51488bVUEdH56J6FgjJslYURAsEKCQAQqIQpgUMRZWQmsqS44seq7RPPvBRyXuvnD4jUROYVt3VUBF+LjgoNLyypRfTnWUni7t0UowQBKauyMouqepACUIr6TkUpftZJkyraasqvBBy7PS5yKqWbvXTAUeDEl4hjYYeHAsEzEgAhGRG+GaYmiohmSF0vacEIemNCjoCAXoRACHRqx6mjgaEZGrCMD4QAAJGEwAhGY3OIg8EIVlk2SBoIGAdBEBI1lHnp1mCkJ6SgP+BABCgHQEQEu1KYtKAQEgmxQuDAwEgMBoCIKTR0LO8Y0FIllcziBgIWA0BEJLVlHogURCSddUbsgUCFkUAhGRR5Rp1sCCkUSOEAYAAEDAVARCSqcjSc1wQEj3rAlEBASBAEAQIybqWQVFR0fXr15mdc25ubmpqKrNzhOyAACMJgJAYWdYRk+rs7Dx06NCINzPihkuXLhUWFjIiFUgCCFgXARCSddVbqVQ6OzuLxWKmpq3RaFxdXfl8PlMThLyAAIMJgJAYXNxhUkNR9Nq1a3FxcRqNZpibLXwXiqKxsbEhISE4PvofnrVwFhA+ELBAAiAkCyza6EKWSCR79uyJjY0Vi8VMeuCWy+WxsbFbt26VyWSjIwRHAwEgYB4CICTzcDfjrDiOi8XimJgYd3f30NDQrKys+xa+ZWVlXbx40d3dPSwsDGxkxqUFUwOBURIAIY0SoKUejqKoQCCoqam5efNmsik3BweH7du3m3KG5Js3b1ZXVwuFQhQd9e+fW2o9IW4gwAQCICQmVJHOOezYsSMpSfdbfLABASAABF5NAIT0aj5w62gJgJBGSxCOBwJWQwCEZDWlNlOiICQzgYdpgYDlEQAhWV7NLCtiEJJl1QuiBQJmJABCMiN8q5gahGQVZYYkgQAVBEBIVFCEMUYmAEIamQ3cAgSAwHMEQEjP4YA/KCcAQqIcKQwIBJhKAITE1MrSJS8QEl0qAXEAAdoTACHRvkQWHiAIycILCOEDgbEjAEIaO9bWORMIyTrrDlkDASMIgJCMgAaHGEAAhGQALOgKBKybAAjJuutv+uxBSKZnDDMAAYYQACExpJC0TQOERNvSQGBAgG4EQEh0qwjT4gEhMa2ikA8QMBkBEJLJ0MLAAwRASLAQgAAQ0JMACElPUNDNSAIgJCPBwWFAwPoIgJCsr+ZjmzEIaWx5w2xAwIIJgJAsuHgWEToIySLKBEECAToQACHRoQpMjgGExOTqQm5AgFICICRKccJgLxEAIb2EBHYAASAwPAEQ0vBcYC9VBEBIVJGEcYAA4wmAkBhfYjMnCEIycwFgeiBgOQToKySpVFpfX98Em34EGhsba2tr6+i3rVixIjQ0lH5x6SJqaGjQjy70ampububz+ZbzyAaRWiQB+gopMzPTx8cnBDb9CAQGBv7www/r16/3o9nm7Ozs6elJs6D81q5da29vHxAQoB9d6BVy4MCBu3fvWuSDHARtOQToK6SMjIy4uDglbPoRaGlpcXNz4/F4UpptYrFYIpHQLChpb2/v7t27a2pq9KMLvZSpqakpKSmW88gGkVokAVoLKSEhwSKhmiNoFovl6emJIIg5Jre8OSUSSWBgYHNzs+WFbqaIb9++DUIyE3srmhaExJBig5AMKiQIySBcBEGAkAwlBv2NIABCMgIaHQ8BIRlUFRCSQbhASIbigv7GEQAhGceNdkeBkAwqCQjJIFwgJENxQX/jCICQjONGu6NASAaVBIRkEC4QkqG4oL9xBEBIxnGj3VEgJINKAkIyCBcIyVBc0N84AiAk47jR7igQkkElASEZhAuEZCgu6G8cARCScdxodxQIyaCSgJAMwgVCMhQX9DeOAAjJOG60OwqEZFBJQEgG4QIhGYoL+htHAIRkHDfaHQVCMqgkICT9cSmVymdCwjBMo9GgKKr/4dATCOhPAISkPyta9xwqJBzHaR0rDYIbKiTA9YqC4DgeHBwcHx9/7dq1K1euJCcnh4SEaDSaVxwCNwEBownQUUiXL19ms9kZGRnXr19ns9mpqalwRZxXFLi0tLS6urq1tdXT01MgECQlJcFVmV+BS6VSpaSkdHd3BwYG1tbWVldXP3r0CMOwVxxi5TeVlpb+7ne/e/fdd//4xz/+5S9/yc7OBoVb+ZIwXfp0FFJGRsZbb701b968uXPnfvjhhxEREXAHeMUKaG9vnzhx4jfffDNhwoTx48cvXLgQcL0Cl0ql8vT0fO+996ZOnfrtt99+8skn3d3dr+gPN6EoOnv27HHjxv385z//7rvv5HI5MAECJiJARyFpNJp//OMfb7zxxrhx4z766KP+/n4TJc+MYVEU3bVr1y9/+cs33njjX/7lX6qqqpiRl4mywHG8ubn5P/7jP954442f/exnR44cUalUJpqLMcOWlZX9/Oc//+1vf5ubm8uYpCARGhKgo5AIgkhKSvr5z3/+q1/9Kjw8nIbU6BZSS0vLe++9N27cuHnz5sHLo9dWRyKRLFu27Gc/+9m7775bX1//2v4074DjOIqiGlNuarV61qxZ33zzjUQiMeU8utMlYAHTfL2ZNDyaCkmj0XzxxRfjx4/n8XgmzZ8Zg6MoumPHjt///vcVFRXMyMikWeA4XlJS8oc//GHv3r0KhcKkc5l0cBzHlUpld3d3ZmZmbGxstCm37du3+/r6mnKG6JiYmLt37/b29sJrVpMuGzoPbrCQUBQVCoVdXV2tra0tptxCQkL2799vyhlaWltbOzs7BQKBSU9jlcvlPT09bW1tJs3l3r1706dPr6mpMeks7e3tHA5HpVKZ7mksgiAcDqe9vd2kiZSVlXl5ed28edOks7S1tbFYLJlMZgpcOI4LBIKzZ8/u2rUrNTU1Nzf3gYm3+/fvm3SG3NzcW7du7d69++TJk3BiDp21YbrYDBOSXC4vKSnZuHHjgQMHIiIiLptyCwsLO3funClnuBwREXHw4MHVq1fn5OSY4kkZhmGtra379+/fvHnzhQsXTJpLeHh4aGioqYty+vRpHx+fyMhIDodD+ZlpOI5zudyYmBhfX9/g4GCT4oqIiLhw4cLFixdNOsuFCxe2bNkSEBDQ2Nio1WqpvRuLxeLNmzffuXOHz+dTXgtqQ9V/NAzDhEJhVlbW2rVrRSKR/gdCT2YQMEBIKpUqKirqxIkTra2tYrFYpVIhFr6pVCqJRNLR0RESEhIcHEz5tyvy8/M3btxYXl7O5/OVSqWF00JUKpVcLu/r67t7966/v39fXx+1T/xZLNa2bdvS09P7+vrkcrml40IQRKlUCoXCurq6DRs2FBYWUvhCXKvVRkREJCcnD35rlRkPRs+y0Gq1t27dCgoKonaBPRsfGrQloK+QMAwrKCg4cuSISCRi3iqRSqVnzpyJi4ujsE69vb2enp69vb2Mefb6DI5KpcrPz9+5c6dMJnu2c5QNqVR66NChgoICU7xUHWVsozwcw7Du7u4tW7Y0NDSMcqhnhyuVSldXV7FY/GwPwxoajcbV1RU+QmZYWV+bjr5CUqvVzs7OHA7ntSNaaAe5XO7o6EjhdyyOHDnC4FMMEATZv39/c3MzVc9OioqKQkJCKORPq3X4v1/lKS0tPXbsGFWvwtva2hj/AiIiIqKwsJBWdYRgTE1AXyH19/dv376dqkcfU2dl3PjBwcFlZWXGHfvCUQiC2NvbM/XhdTDZysrKkJAQSj4aQVH0ypUrubm5DF5gHA4nICCAqqd0hYWFSUlJL6w6hv2Zm5ublpbGsKQgnVcT0FdIJSUl1L6j9eqwzHJrTk5OcnIyJVPzeLzly5cz792noXB6enpWrVpFyVWdFArFqVOnKHxHa2icNGlLpdLjx4+3trZSEk9+fn5KSgolQ9F2kLy8PMbnSFv45gpMXyEVFhYmJCSYK8qxmbegoICqHDkcjre3NyUP1mOTuxGzcDgcLy8vSnKUy+XBwcHNzc1GhGEph8jl8pMnT1KVIwjJUuoOcRpEAIRE4gIhkSz0aIGQ9IBEdgEhkSz0a8ErJP04MaoXCIksJwiJZKFHC4SkBySyCwiJZKFfC4SkHydG9QIhkeUEIZEs9GiBkPSARHYBIZEs9GuBkPTjxKheICSynCAkkoUeLRCSHpDILiAkkoV+LRCSfpwY1QuERJYThESy0KMFQtIDEtkFhESy0K8FQtKPE6N6gZDIcoKQSBZ6tEBIekAiu4CQSBb6tUBI+nFiVC8QEllOEBLJQo8WCEkPSGSXsRGSqPXO/CfbAmc378tJuSLZ639+UMnrOrJ1zfLVgXdOH00p7RGyO/adPN8jftWBqLx/o6/34FQLFizYcfhcJ5via6GCkMjVYzUtEwgJ1/b3dvcLpRiOD2DE1QppF6sfNYopjmoE/T2NT7amzu4+lRYzaqTXH0QHIWEaRUd7m1ihGQwXQzViYb9IKtcopP1coVpDUlQrpa1PubS0dQgk8qfAX58pJT3MKCRuT/vT1HX/szg8BH1pVeCoWCTsF0o1Kimnv19jyMW2tYiS38+XK59UgRJcYyMkdlnoLyYuqhzYSgtzvO0n+59IUGgG74kj5pF23NNh39XmVlb6znUROW3dzRV2y3xr2dIRDyAIjbD9y4mTknMeDExVERO0bsKX03okVBIDIb2CP1NvMoGQNKIts77/YIJjj1Cuo4Zj3QUxH03YZdxlODVyzkm/b/70t09/1G2Tf/z+q4nzfKX6LXu1XJSfeq9XMBCGHgWkg5B6K5P+Mv5PS4/fHYwXkfEubp17+V4V93H2ojmbujmSJ3ngGLsm9Y///v8m/jDAZfKPn3zyVXJVJ/rkScCrssUxbW/bo4yS0V4ywIxCWmf3wZ8/+HxgSej+8TgU1v9U4WTmGnnsuX1bwtL72/Nt7Ow4fAOev4s7ajbaepU2csnRRt0aKyGd+Zfpq54Gi5XdCZ/h5tfBFZZU1fR3NxcUlUkRVKtRttRVPnxYzOIIUQwX9DTt9pi48FBUXVt/f1NdJ1fW3VQ+z92npk9K4LiU31vyMK+kqkGhJp8MEQShEbR9/sOMmj7eoOtkYt6sSZ8nlPXiOCbhcyrKHuYXFLO4osFbtWpl0+Py0kePe3pYtZ29ahTDcVzY11GYf7+yrg0Z4SkmCOlpHa3ofxMJ6adPP/7Q80C8bqkNERKOY4hKKZVIZDK5duAprVIu0/2v269QKFUYThCYVqZQPntGpxPSHpvt1+4P1kQtY7t9/Ycz91kEgWs1aplUKpHKVGrN4DXQNGqVVCKRSKQDe7DeuodLZ3gV1fWhLz99Hq7EZhcSjiHn19ocvBT+4VcOwoFnta8U0q3vPl0mUOsywbTq7LDNP9lvUyAaHEOVCplEIpErlIOJY6hWIX+yB8NxjUJw49jsLZfuqtQalLxpAP5wWEbaZ0YhrZ//t4DI6hcCwzBUOZimXIliODGMkPDBFSKVyhDdmsFUKkSj1T3OalRKkVSOEwSOY2qVUi4Rs7v7JDJEjaiUCKKQy8QSiUKFDC5LVKuRy6RSmUylW7QDBXghlOH+HDshTfMe/JVxNaLIij06b+Wublbr+M8+d1vquWPzvhauYP/q+Ys9V23fttlujv21rMeP85Jcp/3tKxff+LvVCV6OhxNrngpJ0vEow2bG/E3bdm/y9bR338FXkD/ppBPSpOmVXX1q3WRqHrt16rf/vPuY3Vl1b8kiR/8du7b7+Xz+z2+ruIgWkR/f6OC4bN2Orf62U3+YvO0MW4ZU3708Y6b9tl1713ov8fQ/J0Wes90gPxDScOuI4ftMJKR5Z+KSpn7xTUJJB/5MSDgm6Gk8vG2N0+LFrs7LIm4WaTHtFnfbBq5KqxCe2+XssvWEQK5VcBrnevipBx4mdI8UzwsJ1SLbnT7cFlulVkpjgwOcHZwWLXL2P3y+hy/VIpKrx7YsWuzkuNBxa+AlgVh0PWjpB+9+ON9tdS/v6QuLV1bT7EKSsuum/DS7gdWxYfbHpzJ1r2D0FBKOYfXpod/NdpYrlS0l6T7LXRctXrTEa8O90maNVtv08OYqj0VOi5xcl/uUtfaLO/NmfPHu3ybOjrpbVp2f7LXUzWmx0xLP9ZVdhv2WgXmFtCusVDGwKVUqFMVwTNP+KH2t5xIHJ0f3Fb53yttQteyFV0iIlBMauGWRk6PTIqd9J2L6+f1hB3dlVzRjOPHg0s6//rhEjBJKiWDviiV5xWV7lvhVtwuqbp5adOTchjWe8xfYevoe4ErVWkT+MCViiYvTUvdl+44fcPG9pJOfHtuYCenn7311eGDbv2e7rc3cyNuliLhn/AdfZLdxcZzoKbzwD1s/nlyNo5pHtyNsF+/sESiu7Jq7/lY9jqHPCamre938WadTHrB6evt6OrfPm3TmLvnzGTohff3N2q07Dh0+fPjQQR/3BU6+R3lydUtVcW5BOV8sEfI5253eD8xlCRvTP53izZaqUY3idtiuqVtP9vH7Zn/yz5i8x2w2u62xxvv7b1Iqe15GCEJ6mQnj95hKSLH5TUVp5yZMXtIpkA++ZSdSCIN3eOw4HVXX3Fr76MH8yV8W96juBq84cbtW1NvkNWfipFmedd3C2tRDy09natEnd3KdkHZM8zoZXTew5WdEffHJ10U9irr0oB8Wb61r7eruaDi6yX1XxB1Oe/4Xk2dX1jW2tTZuXen1iC3prsl3nbo8/zFr8Fnwa2tpZiHhaPG1g7O8j/MlypK4PR/M8VOi+CuFdPOz9+YXV+u4VFcUe9lOXXv6rlLYNu0fn1+//5jN7nuYET/HfkVjd/dye9vo9NzW9o47EXt3RmSr5by4Q9P9LqTLhH0rliy8mpbV2t6RdmHfodi81yIa2sGMQlpn9+HnPziuGdg2bd3R2CuSc1tn/Dg5vbCS28+tzrs+8fupLJ7wBSHdPu0zf+3J9h52Z2tdoI9TQGROQULInkvpMpVyp8O3n/7jb3ldiv7eSru565rrKjfM9Sxp4BbGBvxzypLHLV2cvq5NsyeF3W/vri92XLT0fnlDL6s9dOPcqU7H9Xz9PWZC+tnfp0Tqtqi4+ORHtS1ylYaQ9Y7/cnoLX/eEozhq9aztkYN15NQ+cJ7l0MziDyukqsa66VO++2H6TAcnR0cnx9lTJgXGkj8GoRPSF58fPhOqmykq+t6DYq5IQeCYkNcTf/64n5+fzyrvLz9+a3tWe2P69kl+Fwfvz7X3r83ff6G7s/aPf/1wzvz5jk6OCxfaz542LSp3mMsYgpCG3t2spG0yIRW0IirJCV+7pTsuN+de/WjCLnZvw4rJExe4LvPf5u+/bcv0L8cfvdfGb38wY9XJ+sqCFZ4rvLw8soorDy2dltuqeyo3uOmEtGXSB59/u1C3Ofj67b5b1KDF8IhV9ruvPhzog1dkhM9efqSrvd7Dfpbd/MUHgs9nP3jYL1b1Nz/ymru2sk3fDw/MKySNrH+tw7R1Ry5m5tzPTDz3X//6++wm4SuFlPref75jM1/HxdXDOyQ6nS2UCmqu/2LiEmTgA34Ju3XHcpuU/OqUM9vnzpnrtW7ntZTUmna2FpGknbHbFf0A18jiT+2cM8fGe2PAteSM+q5+gxa9eYXksS3s3sCW97CEwxd1FcT8MGOLUKLUvaxUyhxnfp1c2f68kHjrp/9nZClv4GNNpPhmmPvyfR1N5cs897Paa76f7Bi5Y9HO2JLq5ED/C7mCjsfPhGQXkKRSoziG3fByOHyjvDTloveq4yK1boG2F8XMWXKKbkIa8hnS03rKesd/PaNVoBNSy53AzzwCZWoUx9HmvIT5tps6OZJhhVTd2mo/d0ZUTnFPH5vD7i29n9PAIlfIC58hDc6EqWUXD63z3nmquLy6qanBd85/b89q7y2N+GjBdgmC4pgmP+HE7F0hPX1tf//kq4zKRg6H08PqLM3P7+AMcycFIT2tnxX9b0IhaXFCyqm1+2bCsf07Ppqwq6+3YeWMmeev3Sp7pNtyMjOa2FKlVOg1b2bsldNbTsZeOeofFHr+R5vl/SLyBAidkHbN3BB+i6/bBBKZYuADUTzKZ+GOqCdCenT7wuyVQT0cfkdz48Pce+eCAhznTrmY02hRQsJZVXemff2jq4fXOt22xubLDxbujlNIX3FSw82vP3JuZeu4iEQSRKPFCUJUl/CLr12fCWnrkrkphfX97O7qitKk6PANXg4/OQfKnwoJQ9X9bFZ1eUlC9CXfJQunrAoa5o38ke8LZhTSy58hdT289sOM9UOE9FXaS0LaOOu/Iop1D6k4hhSlnF/meVAkFR7y8byXdm7OqtCegrCJS/fvXTInv6lfNERIjsduqTQYjmGJ3k6HbpSXpoZ5eh0dFFJH0ZU5S05blpCUoi73BTMOh0WnJF9f6+5yIiZHhqDDCqmmh1+YcGqew4q4xJSEaxGL7OZXd5PaGEFI0svH/JxX70hOuxUbeXrShHf9UuoRGXe146zAC3EpideX2v3045aTbIk0+fRmh+X+SWk3Yy6HODov7xzuzCMQ0sh3PsbeYlohEQT2+E7oe//3rY8m7BLJBef2rFx34Hx7dx+rpcprkVNFrwJVKzNPu0+e+VP0/YbazCs/TfrCJShdjgz57PT5z5Ce1gFvzrnw/VyvmlZWT0f9zlVOh2KzelpyPb13trJ6utqaDiybsif+kaCt0mu2R25FB/3fssO1yusntrhvC+liC3SnZUgk7Q+j33vnq7rO7pHPsiNPaniKhUDl3TZffhae8YjD7rufcNF2kU9DR1eAv+/th497erqLko6/97WPTC3LOO++PDhZxO/Zv9P3dmFldw/rQUzgO3M3ktyfjThyg1ZCknNbF/w0OfZuCZfHLUkP+2bK/K5+wfOvkESZF/1mLAto7WF3tdZsWmJ/7FqhFsNKE0/Om/rdzqQarbzj6w///s28lXwVNqKQEqp7Gspc7J3ulNT1dnccWzFz6iJ6vWUn7SnZE3XzxaKpJacuRgmUuu8V4RjKYTUlxF4OPXf+Xn4FX6zACaIqOzq9sR/H8brU+Lw6joTfG5N0kytFVHJRdVF2+MWQ82FXSh43D/3GBaYUnguP4kqfP4UVx/jsrpS4y2fOXrybX1Zy90bi/RZUo2yqrYi7HHYhIi767J6Fe87wFFqFhF+YmXb+3OnwK/G1rV3qp2/RD40chDSUhpW0TSAkrfTQEo/UcpbuGbvu/CXpuU1OU2YcV+Aor7v54rGdTgvmL1qyPOz6fUSLEzja15I3e45tXZ9E1F1tP2dadj1r6OLUKgWXglyP3ip9oR5qpSQz/sIyZ6eFjktOXE7o40vVckHixSA3p4W2josPnIrsFcgRaX/kkU32zp4sLvnM7oVxhv5pxrfsVKLuHV4uyfk1g9B0J85pZKsXTA65WRoT6JZQ2CRoKVrpFsB99kQSx/hN2XYzNolfOAMexzqqC7Zv8Jo/f77PlsCix22IGqkvzd64Zomt3QJv3605le0Ypm2vyra1mXM2Nq+qJMNvtYed3fxV67fl1rGG0nht24xCCvD66XRS49AIdSc1PM7fs3HlPNv5azYHFNS0a9WKtKsnD157IOwpd3N354uliJR77cJRV4cFjs5LL8bd6xcrCIIQdz/+buLUoh4RjqMbXKZsC8/GCELa2/TspAavc9lqLYbjWLr/qvN3m7WIvCo32WuJo7P7ytNHNs5wDqbVKyQc0yiQl078wzEVon72NTUcxzUIolSqtE9PHdKqEc3AmaioRq3RohiGajQabOBkDQzVqpRKpRJ5dvgT7DiGIOrBPs8VAsc06ieDoxo1okYRUb3LXJeS2qbmhsf71roFxWUqB1a57vRzpUKlemnkp8OBkJ6SsKL/TSAkHFPKFWrNs2fbOKKUS6W6M7lxDEOUColYLJFIkacdBk6ilWlQHEM1Mpn82fl1g0UYODdXqUReeNzVPdXTqhGpRCKWSJ/e2XA1opSIxSKxWHeG7sB8iFIh1Z1irtd7UWYUEo5qlQrFMyaDuStkEoUSUSNKRK3BNGqlUjX0hC4dN6ni5TO8cAxVyKVisVgmVwyeWz94mrJYLNahGDgA1WqkEolSpdYOnMEsFomlA++FGrTwzSgkpUyiVD1bYE+i1p3dLpOKRAOJYziB4wiiY4ehaoVSiWG6rxdoBlbI0y8G6A7EUY1EKhsEpZBLFCrdo/nAo7BKo8V0D63Ik6+VapQKJaLhdFSfuRTexRaIxaLMEF+3wNtDi/IKgGNzUsMrAjDXTZgWqc6KW+JoO2uu09mYdK5Id3q9PhsISR9KDOtjAiFZLCEzCskSmZlRSGbEJenv3LNywQ/TZs6fN3PSLt036QAAIABJREFU9LktT7/7+dqQrFZIA+8TYqhWq9W99nrpghojgwMhjcyGsbeAkMjSgpBIFnq0rFNIBEGolfLero62DpZEMfBCXA9WBEFYs5D0I/RiLxDSi0Ss4G8QEllkEBLJQo+W1QpJDzbDdAEhDQPllbtASK/Ew8wbQUhkXUFIJAs9WiAkPSCRXUBIJAv9WiAk/TgxqhcIiSwnCIlkoUcLhKQHJLILCIlkoV8LhKQfJ0b1AiGR5QQhkSz0aIGQ9IBEdgEhkSz0a4GQ9OPEqF4gJLKcICSShR4tEJIekMguICSShX4tEJJ+nBjVC4RElhOERLLQowVC0gMS2YVaIRUXF8fHx5OjM7GVlZV169YtJmYGOY1IQF8hPXz48Pr16yMOw4gb8vLyEhMTKUmFy+WuWLFCpXrVj0BTMpEZB+nr6/Py8kIQZPQxyOXy4ODgpqam0Q9F2xFkMtmJEyeam4e5rLURMXO53O3btxtxoAUdEhwcXFZWZkEBQ6ijJ6CvkDo6Og4fPjz6+eg8QkxMTE5ODiURyuVyJycnpVJ38Wmmbs3Nzfv371erX7pQjeEJq9Xq8PDw4uJiww+1mCMEAsHBgwdZLMOuzzRSekqlcuHChWKxYT9hNdJoNNyv1WptbW2ZfQ+iIXazh6SvkBAEWbhwISWPPmbPeaQA3Nzc+vvJC+yP1E3P/b6+vlwulb+Bree8Y9YtLCyspKTEoO/evyK2u3fvXrlyBdXvIk+vGIe2NzU0NAQEBCgUugvojX7DMOz+/fsBAQEazctX1Rr98GYeAcfx06dP37hxw8xxwPRjTkBfIaEoGhkZmZKSotW+eA2xMY+Z+gkH79579uyhcOjKykp/f39GKhzH8e7u7hUrVggEAqqIsdnsHTt2tLa2Dv4aPVXD0mQcmUwWFBR0//59CuNRKBTh4eFHjx7l8XhqtVp3aR7L39RqtUgkOnv27O7duxn5UEPhAmDkUPoKiSAIoVC4efPmO3fuyGQyxjyTRVFULpc/fPjQ09NTJNLrouB6rgMURc+fP3/8+HGRSKTRaJjxOIthmEqlam9vX7duXXV1NYXLAMOwkpKSjRs3slgslUpF1QsvPYtlom6662prNEKh8Pz58xcuXKD8DSi5XJ6RkeHn53fw4MGoqKirptzCwsLCw8NNOcPVqKioQ4cOrV+/Pi0tjZLPJk1UVhjWdAQMEBKO42w2OzQ0dOvWrZmZmW1tbR0WvrW1teXk5Pj7+x89erSvr49yygiCJCQkrFmz5tq1aw0NDRZOSxd+RUXF6dOnN23aVFVVRfmLP61WW1FR4e/vHxwc/OjRIwbgamxsvHHjxurVq9PT0yUSCeULjCAIFEX5fH5VVVVeXt4DU26urq5BQUGmnOFBXl5eVVUVj8djxtMRU5Sb8WMaICTdVXtxXCaTNTQ03Lt3LzIy8rKFb5GRkXfu3KmtrZXLn/+dMerKjqJoV1dXcXFxTEyMhdPShZ+QkFBRUcHlcil8bTQUNoZh/f395eXliYmJDMAVHR2dl5fX1tbGgE96tm3blpKSMrRY0AYClBMwTEjPpkdRFEEQlYVvCIKY6IH1GajBBo7jarXawmnpwh+z9x41Gg0DcKnVama8Vfu/1zgHIb1wp4Y/TUHASCGZIhQYEwgAAdoSACHRtjRMCgyExKRqQi5AwFQEQEimIgvjDiEAQhoCA5pAAAiMQACENAIY2E0lARASlTRhLCDAVAIgJKZWllZ5gZBoVQ4IBgjQlAAIiaaFYVZYICRm1ROyAQKmIQBCMg1XGPU5AiCk53DAH0AACAxLAIQ0LBbYSS0BEBK1PGE0IMBMAiAkZtaVZlmBkGhWEAgHCNCSAAiJlmVhWlAgJKZVFPIBAqYgAEIyBVUY8wUCIKQXgMCfQAAIDEMAhDQMFNhFNQEQEtVEYTwgwEQCICQmVpV2OYGQaFcSCAgI0JAACImGRWFeSCAk5tUUMgIC1BMAIVHPFEZ8iQAI6SUksAMIAIGXCICQXkICO6gnAEKinimMCASYRwCExLya0jAjEBINiwIhAQHaEQAh0a4kTAwIhMTEqkJOQIBqAiAkqonCeMMQACENAwV2AQEg8AIBENILQOBPUxAAIZmCKowJBJhGAITEtIrSMh8QEi3LAkEBAZoRACHRrCDMDAeExMy6QlZAgFoCICRqecJowxIAIQ2LBXYCASDwHAEQ0nM44A/TEAAhmYYrjAoEmEUAhMSsetI0GxASTQsDYQEBWhEAIdGqHEwNBoTE1MpCXkCASgIgJCppwlgjEAAhjQAGdgMBIDCEAAhpCAxomooACMlUZGFcIMAkAiAkJlWTtrmAkGhbGggMCNCIAAiJRsVgbiggJObWFjIDAtQRACFRxxJGGpEACGlENHADEAACzwiAkJ6hgIbpCICQTMcWRtYRyM/P9/X13QybfgTWrl07e/bsOXPmzKXZ9uGHH3766ac0C0oXjq2t7dq1a/WjC702+/v719TU0PaxCYRE29IwJLDbt29HRUVxYdOPQFVVlYODQ1NTUzvNtubm5paWFpoF1V5bW+vn51dSUqIfXejFvX79+s2bN2n74AJCom1pGBJYenp6UlISQ5IxfRosFmvFihUIgph+KibMIJFIDhw40NzczIRkxiSHW7dupaWljclUxkwCQjKGGhyjPwEQkv6sCIIAIRmEC4RkEC6CIEBIhhKD/owiAEIyqJwgJINwgZAMwgVCMhQX9GcaARCSQRUFIRmEC4RkEC4QkqG4oD/TCICQDKooCMkgXCAkg3CBkAzFBf2ZRgCEZFBFQUgG4QIhGYQLhGQoLujPNAIgJIMqCkIyCBcIySBcICRDcUF/phEAIRlUURCSQbhASAbhAiEZigv6M40ACMmgioKQDMIFQjIIFwjJUFzQn2kEQEgGVRSEZBAuEJJBuEBIhuKC/kwjAEIyqKIgJINwgZAMwgVCMhQX9GcOAQzDCIJ4JiR8YGNOelRnMsjnmZAA12sB4zg+VEg4jr/2EGvuMHh/fHalBnouMLh0kDUvURPmjuN4QUEBj8e7devWjRs3+Hx+fX29Vqs14ZQWPnRzc3N3d3dLS4unp6dAIKitrZVKpRaekwnDRxCkubm5p6dn3759tbW1LBarsbERnDQS8cH7I5/PT01NTU5Opu39EYQ0UgVh/2gJJCQkTJs2bePGjRs2bJgzZ05ERASKoqMdlLnHNzU12drabty48aeffnJ3d3dzc1Or1cxNd7SZKRQKT09PBweHRYsWrV27dsaMGd3d3SCkV2CNj4+fNm3ahg0b/Pz8bGxsoqKiaHh/BCG9ooJw06gI8Hi8995779/+7d/efPPNDz/8sL29fVTDMf1guVzu6+v7m9/85le/+tWbb7559+5dpmc8qvxQFC0uLv7973//61//+s033/T394cXlK8G2t/f/5e//GXw/vjxxx93dHS8ur9ZbgUhmQW7VUyK4/j58+fHjRv3y1/+8vjx4/B+3WurXllZ+fbbb7/xxhs//vgj/ALFa3Hx+Xw7O7s33njjrbfeKi8vH/yM5LVHWW0HHMfPnj07bty4N998Mzg4mJ73RxCS1a7PsUhcIpGMHz/+rbfe6u7uHov5LHwOlUrl5eX1q1/96sGDBxaeyliEj6JoZmbm7373Oz8/P3h5pA9xiUTy/vvvv/322z09Pfr0H/s+IKSxZ06jGREEEYlEAlNuwcHB+/bt4/F4pptEJBIhCDIGnx9gGCaRSEyXiEAgyM/PnzZtGovFMt0sQqFQLpePAS6CIP73fUjTJSIQCBobGz08PO7du8fn8003kVgsHpuPW8bg/njixImDBw/S9v4IQqKRHsYsFBzHu7q6Dh486OLi4uHhscyU25IlSxYvXmzKGZZ5eHgsXrx49+7dLBbLRAxVKlVMTIyLi8vSpUtNmou7u/uiRYtMXRQ3NzcfH58HDx6Y6H0bFEUfPny4evVqFxcXk+Ly8PBwcXFxc3Mz6SxLly51dXWNiIhQqVSmWGA4jnd2dgYGBjLp/rh3714j3hcBIZligdF6TBRFc3Jy1qxZU1hYKJFIGPDOO4ZhUqm0rKzM29s7PT2d8uf+bDZ76dKlsbGx/f39JnoEH8sVg+O4SqVqbW09evTooUOHKH+zS6FQ7Nu3LygoqKOjgxmfhKEoyuPxEhMTPTw82tvbqV1gKIpmZWWtXbv24cOHTLo/lpaWenl53b171yBcIKSxfCgw/1w4jtfX1/v5+dH2TeTRMBIKhWvXrq2oqBjNIC8cK5VK3dzcKisrX9jPgD8VCsX169dDQ0MpPL9crVafPHkyMTFRoVAwANHQFFAUbWhoWLVqFZ/PH7p/NG0cx+vq6jZv3tzb2zuaceh5rFAo9PHxqaqq0j88EJL+rJjQU6PRrFy5srGxkQnJDJcDh8NxcXHRaDTD3WjMvitXrqSlpRlzpCUcI5FItmzZwmazqQq2trb2yJEjAoGAqgFpNY5arc7Nzb1w4QJVHymp1WovL6+mpiZapUlhMGw229XVVf/7IwiJQvgWMJRYLN64cSNVdyd6Jrx7926qjKvVau3t7Sl/U4tW3AoKCq5cuULJksAwLDY2NjMz06B3aWhF47XBsFis3bt3C4XC1/bUp4NIJNq8eTMl8PWZzix9du3a1dzcrOfUICQ9QTGkW2VlZWRkJEOSGSGN27dv37lzZ4QbDdstEomWLl1qoo+yDQvFZL07Ojo2bNhAybt2KpXq1KlTNTU1JgvW/AOLRKKjR49S9a3S8vLy6Oho82dlyghu3bqVmZmp5wwgJD1BMaRbQUFBYmIiQ5IZIY28vLzk5OQRbjRsN4fD8fb2ZsYn8yNlzmazvb29KRGSXC4/efKk/k+HRwqJzvtlMtnx48dbWlooCTIvLy81NZWSoWg7yP3792/evKlneCAkPUExpFtBQUFSUhJDkhkhjfz8fKpy5HA4K1euZLaQKJSuNQhJLpdTKyQGf0I5eAd98OABCGmExyqr3w1CMmgJgJAMwgVCMggXQRB5eXkgpKHQ4BXSUBrMb4OQDKoxCMkgXCAkg3CBkF7GBUJ6mQmT94CQDKouCMkgXCAkg3CBkF7GBUJ6mQmT94CQDKouCMkgXCAkg3CBkF7GBUJ6mQmT94CQDKouCMkgXCAkg3CBkF7GBUJ6mQmT94CQDKouCMkgXCAkg3CBkF7GBUJ6mQmT9xgmJExdnpOVkftQi+ODUHBU09lYkZVbJpa/6to8/V11Gem30ga2jHtZjR19GhTTEyuGalHsyXR6HvJCN9qe9i3itpfUNSi1JAoUVZXkZSrV2u6O5vou7qjSfoGC3n+a8bTvmtLswUUy+O/9yufgPMkA03Z3NNV3cRE5v6SsDFG/auG9kLRGIaktrRbJkBf2j+ZP8532jbYUFd4ewuteZilCLiUyJ15DZW07X61SlJWXCxUG4CKHoLQFp31TipNZgxkmJI1wxRef/fH9r2sF6kEMShFnr/OkCd8sq2NJXgGmIHbPt/OW7Ni1Z69u22U3z+52edcr+g+5Sfsg4mIVRzmah2baCqkqJ2zhzgN9sicwCYJQq3jLFvzAlSgSIo4GRGejQ0CMWdOMQtrq+vUc57UDi0T3T2hKjgR5iYFGcSP8yL6YHAGr2GGxM08k1Z+MrK9l3/JtdV0i/Q95bU/zCUkZYj97jrPPk3vV3oDjJ+MUL9EiCOLBPp9dEUUCbu9id4/K3lfdT1+bLCUdQEiUYGTmIIYJSc1f/P6nLgtnBiQ+HsCB97ZWz5k0/bOJy6pa+wUCEaLRDmJSSkRSOfk4mx2xabp/RA+XLxaLBXzu7TPrvrMPRnACxzG5VMTmcMRSxeDlznAck0mEuj0yBYbjSjln88dfXS+sV6gxHEPFAh6bw5UqVAb5ibZCKs0Ime23vVtCgtJqlLXlhVK5PCZ0n/+lDJQgVDIxXyjFBl6SKmRiNpstksoHXzHiGCoR8fvYbLGcyl/lMaOQ1tr9befFh+Knm1ypQnGcwDG5RNjb2yeSKnR118iung3YGn6nvz1vlq0dVyAmCALVIDwuh8vjIxqUwFCJTKYaeOWklol7ebqrzOEYqpBJhVxue1MbX6RQyiVSJSITC3r72DLlE/6oVi0S8Pr5QqVcIpLoe21y8wlJcXT695vD7vcLRIPApLq7jC5TuVTMeXoPIggia5v7xjMPeH1dto5OJQMy1iCKAVxCLYbr7oMSkUKDEgSulElEYqkWxQkCF/b3azAC190HJRwORySRD75RIZcIFUpFP5sjkSOYViPk93O4/QqVWv+7JAhp8EES/h2GgOFC+iIy5uKXi3ZiBIFrkYq0k6v8A6fNWFXV3H1oqWNyVR86cJfYscz2YSv5PDQ7YpPNnmtSlU5XOKZ9nBT4j293y7TqyuxrTva27svcbWbbRd9vInC84+E1uzk2y5YvnWe/OKOkuf5B1Jf/88dZjs4PWmX3I3faLFzk4eG60HVVWRtvmGRG2GVBQkJU/W42X3NET4QkE7J3uDqHZzzWolhr4Y35c2w8li9f4OCWUtCIomhV+iUne7vly5bOnGmTXcMZIXuDd5tXSPuvDD7XeRo2jtZnhy+wne/huXT+PLuYB43YS0LSyPo2LbNfuNh1scM8r/XHOHxB1ME9WRVNGE5kntv07jeuIoyQiwWbVywtKivfvWRTTYeg6mbw/J37XdxcXRYvmGO3sk+i0apk6WGH5tk7LF/q4rl5o7NvOKbfG8XmFdKumDJES7oAQ9WP8xIcF8xd4uE+Z+6CmLxmFMNfEJKY27R2hZuDy7LFDrM9Np2UKlWJ+71SqnsIVHn9yObpczb38mW4iuM0y02gxTnVtxfazvFY5r7QflFiQY0GxTPP+6z09V3q4XE+pTw5aPVcR5clLk5Oy/1b2LpnBvpsICR9KFlpHyOEdKe6Yf7n/6wXokqJIGDpomvJKbNmrapqE5ReD7RfE6ZSo2rOo28nLeUqybcPsiM2/bDqWFFZRXV1dXHezZnffRZ4vZzXWb3U1vl2YS1fIGx9dO9vn9r2qbFtS23O3Srl83kP78SGxNwUyfo3vPdZyqN2RKty/u6/7lR28ft7716/dDWthBz9daWzICEpFX2zv/gjS6AT0tpjl3evWHr0aq5AosSRPpu/fX6vqlMoFNQVZ7u4rGlisVzmL0grrOQLhGWpp/ZGZr0Og763m1FIvrYf/OHdT78b2GbOW/iohSPnNHz/4/SyhjahSNhem/PDt1918IQvvEK6ftDNPSCWyxdy/n97ZxrURJYH8E/7bbdqa6dmd2urprZqa2ouHXccHQ8cx1scEFEOUS6RM4hRFMSBQcFBjLcI6OA1M16jQYMCC8NoUORUELlJCElIIJC70zk76XS6t0IQue1YYSTx9Qdtul/6vfd77/Uvef3v7j5ebvL25AtltffOp1z6n9Zo2O+5cP78j54I9bK+hk3eydzOF/FeUfVsafXNtAXrdgoHZEq5JMNnbV45t6f1SUAYpbFLqJRLbqRvWbP1jFMI6ZOPZrstsfJavnLVY65C2d8d5OtfVNuugJRdz5lzl/pJ9aaRQnrKE+UkxBy6VCKSKhTS/r2+bifuN/PrbmzNoCNqUWrk+lkL1rRwRdLmgnURp1GzZpv7vN/r2UqlktVQFrE1pkukYtA2e1EvKSFIIRd5L/2wplMkFwuvnsv+vYEz0QWsCXodENIEUMAmG4E3ENIDtpx+IOBQfrOivy0gPKO5scoqJL5KN9C20G1Dv8bwKJsSf+7hq69tBFH+U+J/5ixw/9bD09MzMJzKKG/QIOaOWoYHZRdXYZ0bwS2a7V+9V8Yx1NFpc2fPcffZdvFWYZ8Mxgnt/k8WMbsUOIFfOxQye9YXfhG78kvK5Wo7JqmcUkhZif/4178//Xx5bWefBScQHvNPf/mnl6+Pr7/v+nWr53+x4Pd6VtH51MVz53j4Rf50p3BAZXBUl36LQtq18dNdxwpaBhdWFxfW6vkVV1d6pKg01uZGDNoAzyV3n3NHC0kWt+KvvzYPvv0BNz0ruhQentbDadweeUDU0/7VioBbB4JSbjxrzD+Q+vNjiN8yLCS/I4VGFMMx7E6U/3HGi7q7P8bG5WpQa7ftrb/lFZbjFEKKpuU/b7LyamvvkGsQXttD/6AtAsgatYGbleEffMbk6kcKqbKlOXSbV+lz9uDwxJ9f37suPkch7g313dbWXBdL3Z8YuPl2JevWD4FnmVxU2fTpn99332jtdd7rV344bz6zhcugbY66/RzHCdSoPx2/cfbseduo+wuZNWr9q5nnqbsiENLUfN7pvW8kJIWqs+hLr8TqG9+fLKjvaau2CYnATefjVp150BqyeNaz/lHnx5FTdsO4WU8LPSLjuoeEpA787O/lPSbUZOgXdJfevRoTssFj20GJWjEsJJNBy+9qz7+aE+i9Jubged3guWP4aFOsOKeQkkNScq+f2uuzI0OlMyL88j994vGik8Vms1mdnV3dPFirMyG6vp7uUvrPkQGrvvT+3lGhY29VSJ+NmbLjV99a6RH/SkgebsVjhSSPd3/vWuPgFC5uqrubGx11XKWFj+6KKLuf5b3zsvTp5a9C0lOCPao5StUIIQWcLDWarRcm70ZtPna3se7epaiYk0NCevqLswhp9JQdzm+v8Nm6eVhIAR/MrhSMFVJYuG9xA8v2ffHpxV0bEi8gGsX11JCjOWdSjpwr+/V4xImrPm5rezUIqmqZ+ze32tZOW69r5/BgnYFB20xhNFmvaeIWgxbmtDdd+/G49+qv066UItaLT69fgJBez+idTfFmQsIxrd/C2evXbGoRaV8JiSD4NfnLVnotDUgbE1s6oZCUfey9YVvOF9QoIKilJO/zJcEQajmZFHrjCRuClLVFl/wj0wRS+Q+r59+s5iFG2W7fTXXd/ZBSVnzxUFzyKQghOUNAzGQhrY7b09YzoBhcVBrdyCm7/Zd/08h7dm5cdaSgATVIfRZ9nlPUCEHK9urCnfEHeUJBagK1pKELglScJ1c+Xhync1AnnlFC0knYfmtW/cp8AalUjb9ddFvjL5CNnbJ7cDFxbXiGSA5J+rrigvyzGHUYgdffy16xcG5GCduCCBd8+PEiH6rSiE8qpILWXlZ9mJ/fgxc8pVz6Q/DKtYHOMWU3WkgENMDfv31j9t0qBaRsKs6dtyJSaRg7ZZd/KiV07xmRVCEXcQMWz7nymIdjxvaqX778wi2bXjHQVbls0RI3/6OIyYyh2t3uiw7ffKKEoI6aohjqQYFUPSwko1YQszmotVcGKSQXDkSnX7inJRfZAITkoJHqioexT0goTF3mWclX4QRRfCJq3e5cg4Xo5zQGBSWzRdboW0zf7z3r/XMPeWNQPbt7JORkkd406roPjpk4rQ2Hk3d6bfCM2Z1ez+ojcFzQXrc7NnT9Bu/o+PSaFrYRM9f/lrfB/dubzeIW5q2Y7UFe3t6J6dktbCG5S87WgsxYIbVVXl329X8Xf730m8ElKPnMUFADbCi8foZGr7QQFm7Dg3U+kb06VMSuP7A7cv0Gr4jdKY/qWwxGY+vTigRqmJf3phjqd49ae8Ywf+M/36KQ0qNX594f/fZuHOM0PklP2OHlvWnX/ozKFr4FNdy/dvpYfiUkagwOC1PCWlQnv513NMhno19g+C8Fj6Ww9dc53NvqtmjFczGME5b4wOUHr1XgBKHp7xoOaqDkPUYxC26xlCRRLjK5Jj38/NH9qGBf/+CovFN73YOzZ/yUHXIh2PfE/XbTiN8lFszE66inJcd5e3lSEjIaWL2YBa8+lpB5o0ElF4dFU1rFGlgqYFw5s8XPyyck4uLtB3rrTAMu7unwXbfxSbvQrOkPX/1N7gOu2Rqxh0u6mzP3UTzXe23bsZ/5tE1nxB7m7fiutAPHCTNqqC+9Gh4c4OXje+DET91CKckhCYT0xmPT9T9on5BwDJIrrZG1BGHUw7ZbQFATAsMaE4qZEL1C2LT8Gx/puN8uBp1arTPYYpdHMsUtmHbCsG+xGII11iFBEGajXioWa4xm3GK2hn2LrTHiJLu+La8ZKySjQSuV9A8vUiWMWzCVQoZiFr1ep9ZZT6wWFJFKFabB+4j1GpVEPKBUDZEZCvseGFDCOlJzJSPRT77+FoWkhqTqEXcLDJVxTNg3btHrrHAw1ACrNeZBMqPCvgc/hmMmuQKycVNDcnjwZlgMNWnVWqPJbO2QesR2ezeigdU6o1LEOnvhUhubw+PzGUciKaeZ47vrhMzeXpSdRQMpdHqjrRbDZRsf9m3UqGANgplRtVqNDA5eE6KXScVSuTXs2/ZBM2pSwzBiNBM4plIoDMah+zdw67ycWiIRK1VqG2qdGtIgrwLlIYXMdifGyyMNF2TSFSCkSdGAHfYJaUpe7Q9yg7b6nWY8c+DJccoMye6csUIiW4E/Nt1bFNIfW9FRualkwryjSRFRFCo1jkLdyx6ASHbjtyekUeV3oj+AkJyosf7oojpQSAqxoK2TrX55m+EfXZPJ8wNCmpzNBHveTSHhFrNKIWF1tLW0dfRJFJiF7BVKIKQJ+tCUm4CQpsTzbu90oJBmLEggJLua5t0Ukl2IRiYGQhpJg8w6EBIZSu9oGiAkuxoePO3bLlzgad924QJP+x6PCzztezwTV94ChGRX6wIh2YULCMkuXEBI43EBIY1n4spbgJDsal0gJLtwASHZhQsIaTwuIKTxTFx5CxCSXa0LhGQXLiAku3ABIY3HBYQ0nokrbwFCsqt1gZDswgWEZBcuIKTxuICQxjNx5S01NTUMBsOVa0gQlZWV9+7dc0gdHRiB5pDyTMdBxGIxhUIxmcg+K3OKMrwLQtJqtadOneru7p6CA/ldVVVVhYWF5NM7Y8qKiori4mKSJQdCIgnKRZKxWKzc3FwXqcwk1bhz587Dhw8n2WnfZpVKFRwcjCB2PGvcvgxmQGoej5eamuoQISEIkpeX9+LFixlQrekqAgRBNBpNIBCdwVSsAAADH0lEQVQ4JIOOjo68vDyHHGrGHoROpz9+/Jhk8YCQSIJykWQajSYkJARFxzwN1UVqZ6vGjh07enoc86g3s9kcHR0NQYMvO3ApSK8qU1BQwGQyMWzUgwdf7bZnzWKxFBUVMRgMC+n7TO05/IxIy+Px0tLSYJjs6+mmLrRarQ4NDXXt8UihUMj7Gwhp6g7jantRFKXRaDU1Na5WsZf1aW1tTUhIcOAIZzKZNBrN9sL1l5m4zv8KhSI0NFQicdj7Z/l8flJSklgsdh1GI2qCIMjly5dLS0sd4m+CIEwmU2ZmZl1d3YhMXGq1ubk5KSmJ/HgEQnKp5n9tZXAcHxgYCAsLY7FYrvc1tru7OzAwkPzXsdfiIghCr9dnZmbS6XSzeegBlGQ+5RRpIAhKTEysra11yHydrcomk6m8vDwlJUWlUrmYxVEULSwspNFoSqXSUe2L43h/f//27dvZbLbrjUcOhxMYGCgUCsnjAkIiz8pFUmIYxuPxEhMTs7KyOByOTCazvZ7Hef+VyWRcLjcnJyciIkIgEDh8YEMQdO7cOSqV2tTUJJFInBfUcMn7+vrKysrCw8MrKir0eus7fB246PX6ysrK4ODgkpISkUg0nKnzrkil0tbW1j179mRlZcnlcseK1mw2c7nchISEs2fPutJ4zM7OjoyMFAqFdo1HICQHjkSnOZTFYoFhuKam5vDhw7GxsTFOvsTGxqanp1dVVcEw7NiTxXCLoijK5XJzc3OpVKqT04qhUCiJiYl0Ol0kEpGfSxlGQWYFwzCxWEyn0/ft2+fsuGJiYnbu3JmVlcVisRAEmY4OZhuP1dXVGRkZFArF2YnFxsYeOnSourparVbbiwsIicz4AmkAAUAAEAAEpp0AENK0IwYZAAKAACAACJAhAIREhhJIAwgAAoAAIDDtBICQph0xyAAQAAQAAUCADAEgJDKUQBpAABAABACBaScAhDTtiEEGgAAgAAgAAmQIACGRoQTSAAKAACAACEw7ASCkaUcMMgAEAAFAABAgQwAIiQwlkAYQAAQAAUBg2gkAIU07YpABIAAIAAKAABkC/wcqBH/2IQNmOQAAAABJRU5ErkJggg==;" vertex="1" parent="1">
          <mxGeometry x="171.9957142857147" y="692.0028571428574" width="560" height="378" as="geometry" />
        </mxCell>
      </root>
    </mxGraphModel>
  </diagram>
</mxfile>
